<svg>
    <defs>

        <g id="lock">
            <path d="M18,8h-1V6c0-2.8-2.2-5-5-5C9.2,1,7,3.2,7,6v2H6c-1.1,0-2,0.9-2,2v10c0,1.1,0.9,2,2,2h12c1.1,0,2-0.9,2-2V10C20,8.9,19.1,8,18,8z M12,17c-1.1,0-2-0.9-2-2s0.9-2,2-2c1.1,0,2,0.9,2,2S13.1,17,12,17z M15.1,8H8.9V6c0-1.7,1.4-3.1,3.1-3.1c1.7,0,3.1,1.4,3.1,3.1V8z"></path>
        </g>

        <g id="lock-outline">
            <path d="M18,8h-1V6c0-2.8-2.2-5-5-5C9.2,1,7,3.2,7,6v2H6c-1.1,0-2,0.9-2,2v10c0,1.1,0.9,2,2,2h12c1.1,0,2-0.9,2-2V10C20,8.9,19.1,8,18,8z M12,2.9c1.7,0,3.1,1.4,3.1,3.1v2H9V6H8.9C8.9,4.3,10.3,2.9,12,2.9z M18,20H6V10h12V20z M12,17c1.1,0,2-0.9,2-2s-0.9-2-2-2c-1.1,0-2,0.9-2,2S10.9,17,12,17z"></path>
        </g>

        <g id="error">
            <path d="M1 21h22L12 2 1 21zm12-3h-2v-2h2v2zm0-4h-2v-4h2v4z"/>
        </g>

        <g id="search">
            <path d="M15.5 14h-.79l-.28-.27c.98-1.14 1.57-2.62 1.57-4.23 0-3.59-2.91-6.5-6.5-6.5s-6.5 2.91-6.5 6.5 2.91 6.5 6.5 6.5c1.61 0 3.09-.59 4.23-1.57l.27.28v.79l5 4.99 1.49-1.49-4.99-5zm-6 0c-2.49 0-4.5-2.01-4.5-4.5s2.01-4.5 4.5-4.5 4.5 2.01 4.5 4.5-2.01 4.5-4.5 4.5z"/>
            <path d="M0 0h24v24h-24z" fill="none"/>
        </g>

        <g id='revolving'>
            <path d="M11.99 2c-5.52 0-9.99 4.48-9.99 10s4.47 10 9.99 10c5.53 0 10.01-4.48 10.01-10s-4.48-10-10.01-10zm.01 18c-4.42 0-8-3.58-8-8s3.58-8 8-8 8 3.58 8 8-3.58 8-8 8z"/>
            <path d="M0 0h24v24h-24z" fill="none"/>
            <path d="M12.5 7h-1.5v6l5.25 3.15.75-1.23-4.5-2.67z"/>
        </g>

        <g id='agenda'>
            <path d="M17 12h-5v5h5v-5zm-1-11v2h-8v-2h-2v2h-1c-1.11 0-1.99.9-1.99 2l-.01 14c0 1.1.89 2 2 2h14c1.1 0 2-.9 2-2v-14c0-1.1-.9-2-2-2h-1v-2h-2zm3 18h-14v-11h14v11z"/>
            <path d="M0 0h24v24h-24z" fill="none"/>
        </g>

        <g id="settings">
            <path d="M19.4,13c0-0.3,0.1-0.6,0.1-1s0-0.7-0.1-1l2.1-1.7c0.2-0.2,0.2-0.4,0.1-0.6l-2-3.5C19.5,5.1,19.3,5,19,5.1l-2.5,1c-0.5-0.4-1.1-0.7-1.7-1l-0.4-2.6C14.5,2.2,14.2,2,14,2h-4C9.8,2,9.5,2.2,9.5,2.4L9.1,5.1C8.5,5.3,8,5.7,7.4,6.1L5,5.1C4.7,5,4.5,5.1,4.3,5.3l-2,3.5C2.2,8.9,2.3,9.2,2.5,9.4L4.6,11c0,0.3-0.1,0.6-0.1,1s0,0.7,0.1,1l-2.1,1.7c-0.2,0.2-0.2,0.4-0.1,0.6l2,3.5C4.5,18.9,4.7,19,5,18.9l2.5-1c0.5,0.4,1.1,0.7,1.7,1l0.4,2.6c0,0.2,0.2,0.4,0.5,0.4h4c0.2,0,0.5-0.2,0.5-0.4l0.4-2.6c0.6-0.3,1.2-0.6,1.7-1l2.5,1c0.2,0.1,0.5,0,0.6-0.2l2-3.5c0.1-0.2,0.1-0.5-0.1-0.6L19.4,13z M12,15.5c-1.9,0-3.5-1.6-3.5-3.5s1.6-3.5,3.5-3.5s3.5,1.6,3.5,3.5S13.9,15.5,12,15.5z"></path>
        </g>


        <svg id="logout" height="24" viewBox="0 0 24 24" width="24" xmlns="http://www.w3.org/2000/svg">
            <path d="M0 0h24v24H0z" fill="none"/>
            <path d="M13 3h-2v10h2V3zm4.83 2.17l-1.42 1.42C17.99 7.86 19 9.81 19 12c0 3.87-3.13 7-7 7s-7-3.13-7-7c0-2.19 1.01-4.14 2.58-5.42L6.17 5.17C4.23 6.82 3 9.26 3 12c0 4.97 4.03 9 9 9s9-4.03 9-9c0-2.74-1.23-5.18-3.17-6.83z"/>
        </svg>


        <g id='detail'>
            <path d="M20 6h-8l-2-2h-6c-1.1 0-1.99.9-1.99 2l-.01 12c0 1.1.9 2 2 2h16c1.1 0 2-.9 2-2v-10c0-1.1-.9-2-2-2zm-5 3c1.1 0 2 .9 2 2s-.9 2-2 2-2-.9-2-2 .9-2 2-2zm4 8h-8v-1c0-1.33 2.67-2 4-2s4 .67 4 2v1z"/>
            <path d="M0 0h24v24h-24z" fill="none"/>
        </g>

        <g id='fiche_signalitique'>

            <svg version="1.1" id="Capa_1" xmlns="http://www.w3.org/2000/svg" xmlns:xlink="http://www.w3.org/1999/xlink" x="0px" y="0px"
                 viewBox="0 0 41.078 41.078" style="enable-background:new 0 0 41.078 41.078;" xml:space="preserve">
            <g>
                <g>
                    <g>
                        <path d="M23.018,34.206L18.64,21.067h-4.253l-2.742-10.28l-2.511,10.28H6.258
                            c5.448,8.125,15.779,17.029,15.779,17.029s10.247-8.904,15.653-17.029H26.811L23.018,34.206z"/>
                        <path d="M32.313,3.022c-3.518-0.374-9.342,1.785-10.352,7.426c-1.013-5.641-6.832-7.8-10.347-7.426
                            c-4.304,0.46-9.979,2.356-8.541,11.17c0.286,1.749,1.211,3.744,2.498,5.818H8.3l3.297-13.491l3.599,13.491h4.203l3.544,10.637
                            l3.072-10.637h12.019v0.529c1.452-2.265,2.506-4.452,2.815-6.348C42.291,5.378,36.609,3.482,32.313,3.022z"/>
                        <path d="M38.034,21.067V20.54c-0.11,0.175-0.229,0.352-0.345,0.527H38.034z"/>
                        <path d="M0,20.01v1.057h6.257c-0.236-0.353-0.465-0.706-0.685-1.057H0z"/>
                    </g>
                </g>
            </g>
            </svg>
        </g>

        <g id="vieviewer">
            <svg version="1.1" id="Capa_1" xmlns="http://www.w3.org/2000/svg" xmlns:xlink="http://www.w3.org/1999/xlink" x="0px" y="0px"
            	 viewBox="0 0 373.591 373.591" style="enable-background:new 0 0 373.591 373.591;" xml:space="preserve">
            <g>
            	<g id="Layer_5_56_">
            		<g>
            			<path d="M361.255,112.942c0,0-15.381,0-20.508,0c-2.306,0-1.958-3.427-1.958-3.427v-10.28c0-13.496-10.98-24.476-24.476-24.476
            				H146.856c-1.125,0-2.485-2.259-4.927-7.007c-0.363-0.705-0.728-1.414-1.1-2.119c-8.535-16.173-19.613-19.568-27.403-19.568
            				H69.859c-11.013,0-17.586,6.398-25.33,19.017c-0.504,0.822-0.999,1.656-1.494,2.49c-2.496,4.208-4.375,7.188-5.827,7.188H24.476
            				C10.98,74.76,0,85.74,0,99.236v203.481c0,11.96,8.625,21.937,19.979,24.055c1.373,0.482,2.879,0.753,4.497,0.753h298.596
            				c8.077,0,15.843-6.506,17.258-14.458l33.037-185.666C374.783,119.448,369.332,112.942,361.255,112.942z M24.477,94.34h12.732
            				c12.717,0,18.706-10.099,22.669-16.781c0.444-0.748,0.888-1.498,1.34-2.236c3.941-6.421,7.021-9.678,10.763-9.678h41.446
            				c1.303,0,5.27,0,10.085,9.126c0.34,0.645,0.673,1.293,1.005,1.938c3.611,7.021,9.07,17.63,22.339,17.63h167.457
            				c2.653,0,4.895,2.242,4.895,4.895v9.79c0,0,0.305,3.917-1.958,3.917c-63.648,0-254.592,0-254.592,0
            				c-8.077,0-15.843,6.506-17.258,14.458L20.835,265.457c0,0-1.254,4.62-1.254-3.947c0-40.569,0-162.275,0-162.275
            				C19.581,96.582,21.823,94.34,24.477,94.34z"/>
            		</g>
            	</g>
            </g>
            </svg>
        </g>

        <g id='folder'>
            <path d="M10 4h-6c-1.1 0-1.99.9-1.99 2l-.01 12c0 1.1.9 2 2 2h16c1.1 0 2-.9 2-2v-10c0-1.1-.9-2-2-2h-8l-2-2z"/>
            <path d="M0 0h24v24h-24z" fill="none"/>
        </g>

        <g id='account'>
            <path d="M3 5v14c0 1.1.89 2 2 2h14c1.1 0 2-.9 2-2v-14c0-1.1-.9-2-2-2h-14c-1.11 0-2 .9-2 2zm12 4c0 1.66-1.34 3-3 3s-3-1.34-3-3 1.34-3 3-3 3 1.34 3 3zm-9 8c0-2 4-3.1 6-3.1s6 1.1 6 3.1v1h-12v-1z"/>
            <path d="M0 0h24v24h-24z" fill="none"/>
        </g>

        <g id='remove'>
            <path d="M19 6.41l-1.41-1.41-5.59 5.59-5.59-5.59-1.41 1.41 5.59 5.59-5.59 5.59 1.41 1.41 5.59-5.59 5.59 5.59 1.41-1.41-5.59-5.59z"/>
            <path d="M0 0h24v24h-24z" fill="none"/>
        </g>
        <g id='notification'>
            <path d="M11.5 22c1.1 0 2-.9 2-2h-4c0 1.1.9 2 2 2zm6.5-6v-5.5c0-3.07-2.13-5.64-5-6.32v-.68c0-.83-.67-1.5-1.5-1.5s-1.5.67-1.5 1.5v.68c-2.87.68-5 3.25-5 6.32v5.5l-2 2v1h17v-1l-2-2z"/>
            <path d="M0 0h24v24h-24z" fill="none"/>
        </g>

        <g id="visibility">
            <path d="M12,4.5C7,4.5,2.7,7.6,1,12c1.7,4.4,6,7.5,11,7.5c5,0,9.3-3.1,11-7.5C21.3,7.6,17,4.5,12,4.5z M12,17c-2.8,0-5-2.2-5-5s2.2-5,5-5c2.8,0,5,2.2,5,5S14.8,17,12,17z M12,9c-1.7,0-3,1.3-3,3s1.3,3,3,3c1.7,0,3-1.3,3-3S13.7,9,12,9z">
            </path>
        </g>

        <g id="arrow_right">
            <path d="M8.59 16.34l4.58-4.59-4.58-4.59L10 5.75l6 6-6 6z"/>
            <path d="M0-.25h24v24H0z" fill="none"/>
        </g>

        <g id="arrow_up">
            <path d="M7.41 15.41L12 10.83l4.59 4.58L18 14l-6-6-6 6z"/>
            <path d="M0 0h24v24H0z" fill="none"/>
        </g>

        <g id="arrow_down">
            <path d="M7.41 7.84L12 12.42l4.59-4.58L18 9.25l-6 6-6-6z"/>
            <path d="M0-.75h24v24H0z" fill="none"/>
        </g>

        <g id="arrow_left">
            <path d="M15.41 7.41L14 6l-6 6 6 6 1.41-1.41L10.83 12z"/>
            <path d="M0 0h24v24H0z" fill="none"/>
        </g>

        <g id="people">
            <path d="M0 0h24v24H0z" fill="none"/>
            <path d="M16 11c1.66 0 2.99-1.34 2.99-3S17.66 5 16 5c-1.66 0-3 1.34-3 3s1.34 3 3 3zm-8 0c1.66 0 2.99-1.34 2.99-3S9.66 5 8 5C6.34 5 5 6.34 5 8s1.34 3 3 3zm0 2c-2.33 0-7 1.17-7 3.5V19h14v-2.5c0-2.33-4.67-3.5-7-3.5zm8 0c-.29 0-.62.02-.97.05 1.16.84 1.97 1.97 1.97 3.45V19h6v-2.5c0-2.33-4.67-3.5-7-3.5z"/>
        </g>

        <g id="edit">
            <path d="M3 17.25V21h3.75L17.81 9.94l-3.75-3.75L3 17.25zM20.71 7.04c.39-.39.39-1.02 0-1.41l-2.34-2.34c-.39-.39-1.02-.39-1.41 0l-1.83 1.83 3.75 3.75 1.83-1.83z"/>
            <path d="M0 0h24v24H0z" fill="none"/>
        </g>

        <g id="local-phone">
            <path d="M0 0h24v24H0z" fill="none"/>
            <path d="M6.62 10.79c1.44 2.83 3.76 5.14 6.59 6.59l2.2-2.2c.27-.27.67-.36 1.02-.24 1.12.37 2.33.57 3.57.57.55 0 1 .45 1 1V20c0 .55-.45 1-1 1-9.39 0-17-7.61-17-17 0-.55.45-1 1-1h3.5c.55 0 1 .45 1 1 0 1.25.2 2.45.57 3.57.11.35.03.74-.25 1.02l-2.2 2.2z"/>
        </g>

        <g id="mobile-phone">
            <path d="M0 0h24v24H0z" fill="none"/>
            <path d="M17 1.01L7 1c-1.1 0-1.99.9-1.99 2v18c0 1.1.89 2 1.99 2h10c1.1 0 2-.9 2-2V3c0-1.1-.9-1.99-2-1.99zM17 19H7V5h10v14z"/>
        </g>

        <g id="filter-list">
            <path d="M10 18h4v-2h-4v2zM3 6v2h18V6H3zm3 7h12v-2H6v2z"/>
        </g>

        <g id="help">
            <path d="M12 2C6.48 2 2 6.48 2 12s4.48 10 10 10 10-4.48 10-10S17.52 2 12 2zm1 17h-2v-2h2v2zm2.07-7.75l-.9.92C13.45 12.9 13 13.5 13 15h-2v-.5c0-1.1.45-2.1 1.17-2.83l1.24-1.26c.37-.36.59-.86.59-1.41 0-1.1-.9-2-2-2s-2 .9-2 2H8c0-2.21 1.79-4 4-4s4 1.79 4 4c0 .88-.36 1.68-.93 2.25z"/>
        </g>

        <g id="help-outline">
            <path d="M0 0h24v24H0z" fill="none"/>
            <path d="M11 18h2v-2h-2v2zm1-16C6.48 2 2 6.48 2 12s4.48 10 10 10 10-4.48 10-10S17.52 2 12 2zm0 18c-4.41 0-8-3.59-8-8s3.59-8 8-8 8 3.59 8 8-3.59 8-8 8zm0-14c-2.21 0-4 1.79-4 4h2c0-1.1.9-2 2-2s2 .9 2 2c0 2-3 1.75-3 5h2c0-2.25 3-2.5 3-5 0-2.21-1.79-4-4-4z"/>
        </g>

        <g id="developer_board">
            <path d="M-74 29h48v48h-48V29z" fill="none"/>
            <path d="M22 9V7h-2V5c0-1.1-.9-2-2-2H4c-1.1 0-2 .9-2 2v14c0 1.1.9 2 2 2h14c1.1 0 2-.9 2-2v-2h2v-2h-2v-2h2v-2h-2V9h2zm-4 10H4V5h14v14zM6 13h5v4H6zm6-6h4v3h-4zM6 7h5v5H6zm6 4h4v6h-4z"/>
            <path d="M0 0h24v24H0zm0 0h24v24H0z" fill="none"/>
        </g>

        <g id="contact_phone">
            <path d="M0 0h24v24H0z" fill="none"/>
            <path d="M22 3H2C.9 3 0 3.9 0 5v14c0 1.1.9 2 2 2h20c1.1 0 1.99-.9 1.99-2L24 5c0-1.1-.9-2-2-2zM8 6c1.66 0 3 1.34 3 3s-1.34 3-3 3-3-1.34-3-3 1.34-3 3-3zm6 12H2v-1c0-2 4-3.1 6-3.1s6 1.1 6 3.1v1zm3.85-4h1.64L21 16l-1.99 1.99c-1.31-.98-2.28-2.38-2.73-3.99-.18-.64-.28-1.31-.28-2s.1-1.36.28-2c.45-1.62 1.42-3.01 2.73-3.99L21 8l-1.51 2h-1.64c-.22.63-.35 1.3-.35 2s.13 1.37.35 2z"/>
        </g>

        <g id="pin_person">
            <path d="M19 2H5c-1.11 0-2 .9-2 2v14c0 1.1.89 2 2 2h4l3 3 3-3h4c1.1 0 2-.9 2-2V4c0-1.1-.9-2-2-2zm-7 3.3c1.49 0 2.7 1.21 2.7 2.7 0 1.49-1.21 2.7-2.7 2.7-1.49 0-2.7-1.21-2.7-2.7 0-1.49 1.21-2.7 2.7-2.7zM18 16H6v-.9c0-2 4-3.1 6-3.1s6 1.1 6 3.1v.9z"/>
            <path d="M0 0h24v24H0z" fill="none"/>
        </g>

        <g id="account_box">
            <path d="M3 5v14c0 1.1.89 2 2 2h14c1.1 0 2-.9 2-2V5c0-1.1-.9-2-2-2H5c-1.11 0-2 .9-2 2zm12 4c0 1.66-1.34 3-3 3s-3-1.34-3-3 1.34-3 3-3 3 1.34 3 3zm-9 8c0-2 4-3.1 6-3.1s6 1.1 6 3.1v1H6v-1z"/>
            <path d="M0 0h24v24H0z" fill="none"/>
        </g>

        <g id="layers">
            <path d="M0 0h24v24H0z" fill="none"/>
            <path d="M11.99 18.54l-7.37-5.73L3 14.07l9 7 9-7-1.63-1.27-7.38 5.74zM12 16l7.36-5.73L21 9l-9-7-9 7 1.63 1.27L12 16z"/>
        </g>

        <g id="vpn_key">
            <path d="M0 0h24v24H0z" fill="none"/>
            <path d="M12.65 10C11.83 7.67 9.61 6 7 6c-3.31 0-6 2.69-6 6s2.69 6 6 6c2.61 0 4.83-1.67 5.65-4H17v4h4v-4h2v-4H12.65zM7 14c-1.1 0-2-.9-2-2s.9-2 2-2 2 .9 2 2-.9 2-2 2z"/>
        </g>

        <g id="delete">
            <path d="M6 19c0 1.1.9 2 2 2h8c1.1 0 2-.9 2-2V7H6v12zM19 4h-3.5l-1-1h-5l-1 1H5v2h14V4z"/>
            <path d="M0 0h24v24H0z" fill="none"/>
        </g>

        <g id="add_box">
            <path d="M19 3H5c-1.11 0-2 .9-2 2v14c0 1.1.89 2 2 2h14c1.1 0 2-.9 2-2V5c0-1.1-.9-2-2-2zm-2 10h-4v4h-2v-4H7v-2h4V7h2v4h4v2z"/>
            <path d="M0 0h24v24H0z" fill="none"/>
        </g>

        <g id="add">
            <path d="M19 13h-6v6h-2v-6H5v-2h6V5h2v6h6v2z"/>
            <path d="M0 0h24v24H0z" fill="none"/>
        </g>

        <g id="more">
            <path d="M0 0h24v24H0z" fill="none"/>
            <path d="M22 3H7c-.69 0-1.23.35-1.59.88L0 12l5.41 8.11c.36.53.97.89 1.66.89H22c1.1 0 2-.9 2-2V5c0-1.1-.9-2-2-2zM9 13.5c-.83 0-1.5-.67-1.5-1.5s.67-1.5 1.5-1.5 1.5.67 1.5 1.5-.67 1.5-1.5 1.5zm5 0c-.83 0-1.5-.67-1.5-1.5s.67-1.5 1.5-1.5 1.5.67 1.5 1.5-.67 1.5-1.5 1.5zm5 0c-.83 0-1.5-.67-1.5-1.5s.67-1.5 1.5-1.5 1.5.67 1.5 1.5-.67 1.5-1.5 1.5z"/>
        </g>

        <g id="info_outline">
            <path d="M0 0h24v24H0z" fill="none"/>
            <path d="M11 17h2v-6h-2v6zm1-15C6.48 2 2 6.48 2 12s4.48 10 10 10 10-4.48 10-10S17.52 2 12 2zm0 18c-4.41 0-8-3.59-8-8s3.59-8 8-8 8 3.59 8 8-3.59 8-8 8zM11 9h2V7h-2v2z"/>
        </g>

        <g id="done">
            <path d="M0 0h24v24H0z" fill="none"/>
            <path d="M9 16.2L4.8 12l-1.4 1.4L9 19 21 7l-1.4-1.4L9 16.2z"/>
        </g>

        <g id="warning">
            <path d="M0 0h24v24H0z" fill="none"/>
            <path d="M1 21h22L12 2 1 21zm12-3h-2v-2h2v2zm0-4h-2v-4h2v4z"/>
        </g>

        <g id="error_outline">
            <path d="M0 0h24v24H0V0z" fill="none"/>
            <path d="M11 15h2v2h-2zm0-8h2v6h-2zm.99-5C6.47 2 2 6.48 2 12s4.47 10 9.99 10C17.52 22 22 17.52 22 12S17.52 2 11.99 2zM12 20c-4.42 0-8-3.58-8-8s3.58-8 8-8 8 3.58 8 8-3.58 8-8 8z"/>
        </g>

        <g id="highlight_off">
            <path d="M0 0h24v24H0z" fill="none"/>
            <path d="M14.59 8L12 10.59 9.41 8 8 9.41 10.59 12 8 14.59 9.41 16 12 13.41 14.59 16 16 14.59 13.41 12 16 9.41 14.59 8zM12 2C6.47 2 2 6.47 2 12s4.47 10 10 10 10-4.47 10-10S17.53 2 12 2zm0 18c-4.41 0-8-3.59-8-8s3.59-8 8-8 8 3.59 8 8-3.59 8-8 8z"/>
        </g>

        <g id="label_outline">
            <path d="M0 0h24v24H0z" fill="none"/>
            <path d="M17.63 5.84C17.27 5.33 16.67 5 16 5L5 5.01C3.9 5.01 3 5.9 3 7v10c0 1.1.9 1.99 2 1.99L16 19c.67 0 1.27-.33 1.63-.84L22 12l-4.37-6.16zM16 17H5V7h11l3.55 5L16 17z"/>
        </g>

        <g id="launch">
            <path d="M0 0h24v24H0z" fill="none"/>
            <path d="M19 19H5V5h7V3H5c-1.11 0-2 .9-2 2v14c0 1.1.89 2 2 2h14c1.1 0 2-.9 2-2v-7h-2v7zM14 3v2h3.59l-9.83 9.83 1.41 1.41L19 6.41V10h2V3h-7z"/>
        </g>

        <g id="person">
            <path d="M12 12c2.21 0 4-1.79 4-4s-1.79-4-4-4-4 1.79-4 4 1.79 4 4 4zm0 2c-2.67 0-8 1.34-8 4v2h16v-2c0-2.66-5.33-4-8-4z"/>
            <path d="M0 0h24v24H0z" fill="none"/>
        </g>

        <g id="schedule">
            <path d="M11.99 2C6.47 2 2 6.48 2 12s4.47 10 9.99 10C17.52 22 22 17.52 22 12S17.52 2 11.99 2zM12 20c-4.42 0-8-3.58-8-8s3.58-8 8-8 8 3.58 8 8-3.58 8-8 8z" fill-opacity=".9"/>
            <path d="M0 0h24v24H0z" fill="none"/>
            <path d="M12.5 7H11v6l5.25 3.15.75-1.23-4.5-2.67z" fill-opacity=".9"/>
        </g>

        <g id="link">
            <path d="M0 0h24v24H0z" fill="none"/>
            <path d="M3.9 12c0-1.71 1.39-3.1 3.1-3.1h4V7H7c-2.76 0-5 2.24-5 5s2.24 5 5 5h4v-1.9H7c-1.71 0-3.1-1.39-3.1-3.1zM8 13h8v-2H8v2zm9-6h-4v1.9h4c1.71 0 3.1 1.39 3.1 3.1s-1.39 3.1-3.1 3.1h-4V17h4c2.76 0 5-2.24 5-5s-2.24-5-5-5z"/>
        </g>

        <g id="account_circle">
            <path d="M12 2C6.48 2 2 6.48 2 12s4.48 10 10 10 10-4.48 10-10S17.52 2 12 2zm0 3c1.66 0 3 1.34 3 3s-1.34 3-3 3-3-1.34-3-3 1.34-3 3-3zm0 14.2c-2.5 0-4.71-1.28-6-3.22.03-1.99 4-3.08 6-3.08 1.99 0 5.97 1.09 6 3.08-1.29 1.94-3.5 3.22-6 3.22z"/>
            <path d="M0 0h24v24H0z" fill="none"/>
        </g>

        <g id="menu">
            <path d="M0 0h24v24H0z" fill="none"/>
            <path d="M3 18h18v-2H3v2zm0-5h18v-2H3v2zm0-7v2h18V6H3z"/>
        </g>

        <svg id="doneLB" height="48" viewBox="0 0 24 24" width="48" xmlns="http://www.w3.org/2000/svg">
            <path d="M0 0h24v24H0z" fill="none"/>
            <path d="M9 16.2L4.8 12l-1.4 1.4L9 19 21 7l-1.4-1.4L9 16.2z"/>
        </svg>


        <svg id="comment" height="24" viewBox="0 0 24 24" width="24" xmlns="http://www.w3.org/2000/svg">
            <path d="M21.99 4c0-1.1-.89-2-1.99-2H4c-1.1 0-2 .9-2 2v12c0 1.1.9 2 2 2h14l4 4-.01-18zM18 14H6v-2h12v2zm0-3H6V9h12v2zm0-3H6V6h12v2z"/>
            <path d="M0 0h24v24H0z" fill="none"/>
        </svg>

        <svg id="palette" height="24" viewBox="0 0 24 24" width="24" xmlns="http://www.w3.org/2000/svg">
            <path d="M12 3c-4.97 0-9 4.03-9 9s4.03 9 9 9c.83 0 1.5-.67 1.5-1.5 0-.39-.15-.74-.39-1.01-.23-.26-.38-.61-.38-.99 0-.83.67-1.5 1.5-1.5H16c2.76 0 5-2.24 5-5 0-4.42-4.03-8-9-8zm-5.5 9c-.83 0-1.5-.67-1.5-1.5S5.67 9 6.5 9 8 9.67 8 10.5 7.33 12 6.5 12zm3-4C8.67 8 8 7.33 8 6.5S8.67 5 9.5 5s1.5.67 1.5 1.5S10.33 8 9.5 8zm5 0c-.83 0-1.5-.67-1.5-1.5S13.67 5 14.5 5s1.5.67 1.5 1.5S15.33 8 14.5 8zm3 4c-.83 0-1.5-.67-1.5-1.5S16.67 9 17.5 9s1.5.67 1.5 1.5-.67 1.5-1.5 1.5z"/>
            <path d="M0 0h24v24H0z" fill="none"/>
        </svg>

        <svg id="colorize" height="24" viewBox="0 0 24 24" width="24" xmlns="http://www.w3.org/2000/svg">
            <path d="M0 0h24v24H0z" fill="none"/>
            <path d="M20.71 5.63l-2.34-2.34c-.39-.39-1.02-.39-1.41 0l-3.12 3.12-1.93-1.91-1.41 1.41 1.42 1.42L3 16.25V21h4.75l8.92-8.92 1.42 1.42 1.41-1.41-1.92-1.92 3.12-3.12c.4-.4.4-1.03.01-1.42zM6.92 19L5 17.08l8.06-8.06 1.92 1.92L6.92 19z"/>
        </svg>

        <svg id="space_bar" height="24" viewBox="0 0 24 24" width="24" xmlns="http://www.w3.org/2000/svg">
            <path d="M0 0h24v24H0V0z" fill="none"/>
            <path d="M18 9v4H6V9H4v6h16V9z"/>
        </svg>

        <svg id="reply" height="24" viewBox="0 0 24 24" width="24" xmlns="http://www.w3.org/2000/svg">
            <path d="M10 9V5l-7 7 7 7v-4.1c5 0 8.5 1.6 11 5.1-1-5-4-10-11-11z"/>
            <path d="M0 0h24v24H0z" fill="none"/>
        </svg>


        <svg id="today" height="24" viewBox="0 0 24 24" width="24" xmlns="http://www.w3.org/2000/svg">
            <path d="M0 0h24v24H0z" fill="none"/>
            <path d="M19 3h-1V1h-2v2H8V1H6v2H5c-1.11 0-1.99.9-1.99 2L3 19c0 1.1.89 2 2 2h14c1.1 0 2-.9 2-2V5c0-1.1-.9-2-2-2zm0 16H5V8h14v11zM7 10h5v5H7z"/>
        </svg>


        <svg id="share" height="24" viewBox="0 0 24 24" width="24" xmlns="http://www.w3.org/2000/svg">
            <path d="M0 0h24v24H0z" fill="none"/>
            <path d="M18 16.08c-.76 0-1.44.3-1.96.77L8.91 12.7c.05-.23.09-.46.09-.7s-.04-.47-.09-.7l7.05-4.11c.54.5 1.25.81 2.04.81 1.66 0 3-1.34 3-3s-1.34-3-3-3-3 1.34-3 3c0 .24.04.47.09.7L8.04 9.81C7.5 9.31 6.79 9 6 9c-1.66 0-3 1.34-3 3s1.34 3 3 3c.79 0 1.5-.31 2.04-.81l7.12 4.16c-.05.21-.08.43-.08.65 0 1.61 1.31 2.92 2.92 2.92 1.61 0 2.92-1.31 2.92-2.92s-1.31-2.92-2.92-2.92z"/>
        </svg>


        <svg id="label" height="24" viewBox="0 0 24 24" width="24" xmlns="http://www.w3.org/2000/svg">
            <path d="M0 0h24v24H0z" fill="none"/>
            <path d="M17.63 5.84C17.27 5.33 16.67 5 16 5L5 5.01C3.9 5.01 3 5.9 3 7v10c0 1.1.9 1.99 2 1.99L16 19c.67 0 1.27-.33 1.63-.84L22 12l-4.37-6.16z"/>
        </svg>


        <svg id="style" height="24" viewBox="0 0 24 24" width="24" xmlns="http://www.w3.org/2000/svg">
            <path d="M2.53 19.65l1.34.56v-9.03l-2.43 5.86c-.41 1.02.08 2.19 1.09 2.61zm19.5-3.7L17.07 3.98c-.31-.75-1.04-1.21-1.81-1.23-.26 0-.53.04-.79.15L7.1 5.95c-.75.31-1.21 1.03-1.23 1.8-.01.27.04.54.15.8l4.96 11.97c.31.76 1.05 1.22 1.83 1.23.26 0 .52-.05.77-.15l7.36-3.05c1.02-.42 1.51-1.59 1.09-2.6zM7.88 8.75c-.55 0-1-.45-1-1s.45-1 1-1 1 .45 1 1-.45 1-1 1zm-2 11c0 1.1.9 2 2 2h1.45l-3.45-8.34v6.34z"/>
            <path d="M0 0h24v24H0z" fill="none"/>
        </svg>


        <svg id="gps_fixed" height="24" viewBox="0 0 24 24" width="24" xmlns="http://www.w3.org/2000/svg">
            <path d="M0 0h24v24H0z" fill="none"/>
            <path d="M12 8c-2.21 0-4 1.79-4 4s1.79 4 4 4 4-1.79 4-4-1.79-4-4-4zm8.94 3c-.46-4.17-3.77-7.48-7.94-7.94V1h-2v2.06C6.83 3.52 3.52 6.83 3.06 11H1v2h2.06c.46 4.17 3.77 7.48 7.94 7.94V23h2v-2.06c4.17-.46 7.48-3.77 7.94-7.94H23v-2h-2.06zM12 19c-3.87 0-7-3.13-7-7s3.13-7 7-7 7 3.13 7 7-3.13 7-7 7z"/>
        </svg>

        <svg id="photo"  height="24" viewBox="0 0 24 24" width="24" xmlns="http://www.w3.org/2000/svg">
            <path d="M0 0h24v24H0z" fill="none"/>
            <path d="M21 19V5c0-1.1-.9-2-2-2H5c-1.1 0-2 .9-2 2v14c0 1.1.9 2 2 2h14c1.1 0 2-.9 2-2zM8.5 13.5l2.5 3.01L14.5 12l4.5 6H5l3.5-4.5z"/>
        </svg>


        <svg id="favorite" height="24" viewBox="0 0 24 24" width="24" xmlns="http://www.w3.org/2000/svg">
            <path d="M0 0h24v24H0z" fill="none"/>
            <path d="M12 21.35l-1.45-1.32C5.4 15.36 2 12.28 2 8.5 2 5.42 4.42 3 7.5 3c1.74 0 3.41.81 4.5 2.09C13.09 3.81 14.76 3 16.5 3 19.58 3 22 5.42 22 8.5c0 3.78-3.4 6.86-8.55 11.54L12 21.35z"/>
        </svg>

        <svg  id="pageview" height="24" viewBox="0 0 24 24" width="24" xmlns="http://www.w3.org/2000/svg">
            <path d="M0 0h24v24H0z" fill="none"/>
            <path d="M11.5 9C10.12 9 9 10.12 9 11.5s1.12 2.5 2.5 2.5 2.5-1.12 2.5-2.5S12.88 9 11.5 9zM20 4H4c-1.1 0-2 .9-2 2v12c0 1.1.9 2 2 2h16c1.1 0 2-.9 2-2V6c0-1.1-.9-2-2-2zm-3.21 14.21l-2.91-2.91c-.69.44-1.51.7-2.39.7C9.01 16 7 13.99 7 11.5S9.01 7 11.5 7 16 9.01 16 11.5c0 .88-.26 1.69-.7 2.39l2.91 2.9-1.42 1.42z"/>
        </svg>

        <svg id="concept" height="24" viewBox="0 0 24 24" width="24" xmlns="http://www.w3.org/2000/svg">
            <path d="M16.21 4.16l4 4v-4zm4 12l-4 4h4zm-12 4l-4-4v4zm-4-12l4-4h-4zm12.95-.95c-2.73-2.73-7.17-2.73-9.9 0s-2.73 7.17 0 9.9 7.17 2.73 9.9 0 2.73-7.16 0-9.9zm-1.1 8.8c-2.13 2.13-5.57 2.13-7.7 0s-2.13-5.57 0-7.7 5.57-2.13 7.7 0 2.13 5.57 0 7.7z" />
            <path d="M.21.16h24v24h-24z" fill="none"/>
        </svg>

        <svg id="format_color_fill" height="24" viewBox="0 0 24 24" width="24" xmlns="http://www.w3.org/2000/svg">
            <path d="M0 0h24v24H0z" fill="none"/>
            <path d="M16.56 8.94L7.62 0 6.21 1.41l2.38 2.38-5.15 5.15c-.59.59-.59 1.54 0 2.12l5.5 5.5c.29.29.68.44 1.06.44s.77-.15 1.06-.44l5.5-5.5c.59-.58.59-1.53 0-2.12zM5.21 10L10 5.21 14.79 10H5.21zM19 11.5s-2 2.17-2 3.5c0 1.1.9 2 2 2s2-.9 2-2c0-1.33-2-3.5-2-3.5z"/>
            <path d="M0 20h24v4H0z" fill-opacity=".36" />
        </svg>

        <svg id="dehaze" height="24" viewBox="0 0 24 24" width="24" xmlns="http://www.w3.org/2000/svg">
            <path d="M2 15.5v2h20v-2H2zm0-5v2h20v-2H2zm0-5v2h20v-2H2z"/>
            <path d="M0 0h24v24H0z" fill="none"/>
        </svg>


        <svg id="file_upload" height="24" viewBox="0 0 24 24" width="24" xmlns="http://www.w3.org/2000/svg">
            <path d="M0 0h24v24H0z" fill="none"/>
            <path d="M9 16h6v-6h4l-7-7-7 7h4zm-4 2h14v2H5z"/>
        </svg>

        <svg id="list" height="24" viewBox="0 0 24 24" width="24" xmlns="http://www.w3.org/2000/svg">
            <path d="M3 13h2v-2H3v2zm0 4h2v-2H3v2zm0-8h2V7H3v2zm4 4h14v-2H7v2zm0 4h14v-2H7v2zM7 7v2h14V7H7z"/>
            <path d="M0 0h24v24H0z" fill="none"/>
        </svg>

        <svg id="bookmark_border" height="24" viewBox="0 0 24 24" width="24" xmlns="http://www.w3.org/2000/svg">
            <path d="M17 3H7c-1.1 0-1.99.9-1.99 2L5 21l7-3 7 3V5c0-1.1-.9-2-2-2zm0 15l-5-2.18L7 18V5h10v13z"/>
            <path d="M0 0h24v24H0z" fill="none"/>
        </svg>


        <svg id="apps" height="24" viewBox="0 0 24 24" width="24" xmlns="http://www.w3.org/2000/svg">
            <path d="M4 8h4V4H4v4zm6 12h4v-4h-4v4zm-6 0h4v-4H4v4zm0-6h4v-4H4v4zm6 0h4v-4h-4v4zm6-10v4h4V4h-4zm-6 4h4V4h-4v4zm6 6h4v-4h-4v4zm0 6h4v-4h-4v4z"/>
            <path d="M0 0h24v24H0z" fill="none"/>
        </svg>

        <svg id="tune" height="24" viewBox="0 0 24 24" width="24" xmlns="http://www.w3.org/2000/svg">
            <path d="M0 0h24v24H0z" fill="none"/>
            <path d="M3 17v2h6v-2H3zM3 5v2h10V5H3zm10 16v-2h8v-2h-8v-2h-2v6h2zM7 9v2H3v2h4v2h2V9H7zm14 4v-2H11v2h10zm-6-4h2V7h4V5h-4V3h-2v6z"/>
        </svg>

        <svg id="star" height="24" viewBox="0 0 24 24" width="24" xmlns="http://www.w3.org/2000/svg">
            <path d="M0 0h24v24H0z" fill="none"/>
            <path d="M12 17.27L18.18 21l-1.64-7.03L22 9.24l-7.19-.61L12 2 9.19 8.63 2 9.24l5.46 4.73L5.82 21z"/>
            <path d="M0 0h24v24H0z" fill="none"/>
        </svg>

        <svg id="cached" height="24" viewBox="0 0 24 24" width="24" xmlns="http://www.w3.org/2000/svg">
            <path d="M19 8l-4 4h3c0 3.31-2.69 6-6 6-1.01 0-1.97-.25-2.8-.7l-1.46 1.46C8.97 19.54 10.43 20 12 20c4.42 0 8-3.58 8-8h3l-4-4zM6 12c0-3.31 2.69-6 6-6 1.01 0 1.97.25 2.8.7l1.46-1.46C15.03 4.46 13.57 4 12 4c-4.42 0-8 3.58-8 8H1l4 4 4-4H6z"/>
            <path d="M0 0h24v24H0z" fill="none"/>
        </svg>

        <svg id="download" height="24" viewBox="0 0 24 24" width="24" xmlns="http://www.w3.org/2000/svg">
            <path d="M19 9h-4V3H9v6H5l7 7 7-7zM5 18v2h14v-2H5z"/>
            <path d="M0 0h24v24H0z" fill="none"/>
        </svg>

        <svg id="restore" height="24" viewBox="0 0 24 24" width="24" xmlns="http://www.w3.org/2000/svg">
            <path d="M0 0h24v24H0z" fill="none"/>
            <path d="M13 3c-4.97 0-9 4.03-9 9H1l3.89 3.89.07.14L9 12H6c0-3.87 3.13-7 7-7s7 3.13 7 7-3.13 7-7 7c-1.93 0-3.68-.79-4.94-2.06l-1.42 1.42C8.27 19.99 10.51 21 13 21c4.97 0 9-4.03 9-9s-4.03-9-9-9zm-1 5v5l4.28 2.54.72-1.21-3.5-2.08V8H12z"/>
        </svg>

        <svg id="healing" height="24" viewBox="0 0 24 24" width="24" xmlns="http://www.w3.org/2000/svg">
            <path d="M0 0h24v24H0z" fill="none"/>
            <path d="M17.73 12.02l3.98-3.98c.39-.39.39-1.02 0-1.41l-4.34-4.34c-.39-.39-1.02-.39-1.41 0l-3.98 3.98L8 2.29C7.8 2.1 7.55 2 7.29 2c-.25 0-.51.1-.7.29L2.25 6.63c-.39.39-.39 1.02 0 1.41l3.98 3.98L2.25 16c-.39.39-.39 1.02 0 1.41l4.34 4.34c.39.39 1.02.39 1.41 0l3.98-3.98 3.98 3.98c.2.2.45.29.71.29.26 0 .51-.1.71-.29l4.34-4.34c.39-.39.39-1.02 0-1.41l-3.99-3.98zM12 9c.55 0 1 .45 1 1s-.45 1-1 1-1-.45-1-1 .45-1 1-1zm-4.71 1.96L3.66 7.34l3.63-3.63 3.62 3.62-3.62 3.63zM10 13c-.55 0-1-.45-1-1s.45-1 1-1 1 .45 1 1-.45 1-1 1zm2 2c-.55 0-1-.45-1-1s.45-1 1-1 1 .45 1 1-.45 1-1 1zm2-4c.55 0 1 .45 1 1s-.45 1-1 1-1-.45-1-1 .45-1 1-1zm2.66 9.34l-3.63-3.62 3.63-3.63 3.62 3.62-3.62 3.63z"/>
        </svg>


        <svg id="star_border" height="24" viewBox="0 0 24 24" width="24" xmlns="http://www.w3.org/2000/svg">
            <path d="M22 9.24l-7.19-.62L12 2 9.19 8.63 2 9.24l5.46 4.73L5.82 21 12 17.27 18.18 21l-1.63-7.03L22 9.24zM12 15.4l-3.76 2.27 1-4.28-3.32-2.88 4.38-.38L12 6.1l1.71 4.04 4.38.38-3.32 2.88 1 4.28L12 15.4z"/>
            <path d="M0 0h24v24H0z" fill="none"/>
        </svg>

        <svg id="favorite_border" height="24" viewBox="0 0 24 24" width="24" xmlns="http://www.w3.org/2000/svg">
            <path d="M0 0h24v24H0z" fill="none"/>
            <path d="M16.5 3c-1.74 0-3.41.81-4.5 2.09C10.91 3.81 9.24 3 7.5 3 4.42 3 2 5.42 2 8.5c0 3.78 3.4 6.86 8.55 11.54L12 21.35l1.45-1.32C18.6 15.36 22 12.28 22 8.5 22 5.42 19.58 3 16.5 3zm-4.4 15.55l-.1.1-.1-.1C7.14 14.24 4 11.39 4 8.5 4 6.5 5.5 5 7.5 5c1.54 0 3.04.99 3.57 2.36h1.87C13.46 5.99 14.96 5 16.5 5c2 0 3.5 1.5 3.5 3.5 0 2.89-3.14 5.74-7.9 10.05z"/>
        </svg>

        <svg id="brand" xmlns="http://www.w3.org/2000/svg"  height="24" viewBox="0 0 24 24" width="24">
            <path d="M0 0h24v24H0z" fill="none"/>
            <path d="M20 4H4v2h16V4zm1 10v-2l-1-5H4l-1 5v2h1v6h10v-6h4v6h2v-6h1zm-9 4H6v-4h6v4z"/>
        </svg>

        <svg id="product" xmlns="http://www.w3.org/2000/svg" height="24" viewBox="0 0 24 24" width="24">
            <path d="M0 0h24v24H0z" fill="none" opacity=".1"/>
            <path d="M20 12c0-2.54-1.19-4.81-3.04-6.27L16 0H8l-.95 5.73C5.19 7.19 4 9.45 4 12s1.19 4.81 3.05 6.27L8 24h8l.96-5.73C18.81 16.81 20 14.54 20 12zM6 12c0-3.31 2.69-6 6-6s6 2.69 6 6-2.69 6-6 6-6-2.69-6-6z"/>
        </svg>

        <svg id="connectors" height="24" viewBox="0 0 24 24" width="24" xmlns="http://www.w3.org/2000/svg">
            <path d="M0 0h24v24H0z" fill="none"/>
            <path d="M5 2c0-.55-.45-1-1-1s-1 .45-1 1v4H1v6h6V6H5V2zm4 14c0 1.3.84 2.4 2 2.82V23h2v-4.18c1.16-.41 2-1.51 2-2.82v-2H9v2zm-8 0c0 1.3.84 2.4 2 2.82V23h2v-4.18C6.16 18.4 7 17.3 7 16v-2H1v2zM21 6V2c0-.55-.45-1-1-1s-1 .45-1 1v4h-2v6h6V6h-2zm-8-4c0-.55-.45-1-1-1s-1 .45-1 1v4H9v6h6V6h-2V2zm4 14c0 1.3.84 2.4 2 2.82V23h2v-4.18c1.16-.41 2-1.51 2-2.82v-2h-6v2z"/>
        </svg>

        <svg id="bug_report" height="24" viewBox="0 0 24 24" width="24" xmlns="http://www.w3.org/2000/svg">
            <path d="M0 0h24v24H0z" fill="none"/>
            <path d="M20 8h-2.81c-.45-.78-1.07-1.45-1.82-1.96L17 4.41 15.59 3l-2.17 2.17C12.96 5.06 12.49 5 12 5c-.49 0-.96.06-1.41.17L8.41 3 7 4.41l1.62 1.63C7.88 6.55 7.26 7.22 6.81 8H4v2h2.09c-.05.33-.09.66-.09 1v1H4v2h2v1c0 .34.04.67.09 1H4v2h2.81c1.04 1.79 2.97 3 5.19 3s4.15-1.21 5.19-3H20v-2h-2.09c.05-.33.09-.66.09-1v-1h2v-2h-2v-1c0-.34-.04-.67-.09-1H20V8zm-6 8h-4v-2h4v2zm0-4h-4v-2h4v2z"/>
        </svg>


        <svg id="exit_to_app" height="24" viewBox="0 0 24 24" width="24" xmlns="http://www.w3.org/2000/svg">
            <path d="M0 0h24v24H0z" fill="none"/>
            <path d="M10.09 15.59L11.5 17l5-5-5-5-1.41 1.41L12.67 11H3v2h9.67l-2.58 2.59zM19 3H5c-1.11 0-2 .9-2 2v4h2V5h14v14H5v-4H3v4c0 1.1.89 2 2 2h14c1.1 0 2-.9 2-2V5c0-1.1-.9-2-2-2z"/>
        </svg>


        <svg id="dateRange" height="24" viewBox="0 0 24 24" width="24" xmlns="http://www.w3.org/2000/svg">
            <path d="M9 11H7v2h2v-2zm4 0h-2v2h2v-2zm4 0h-2v2h2v-2zm2-7h-1V2h-2v2H8V2H6v2H5c-1.11 0-1.99.9-1.99 2L3 20c0 1.1.89 2 2 2h14c1.1 0 2-.9 2-2V6c0-1.1-.9-2-2-2zm0 16H5V9h14v11z"/>
            <path d="M0 0h24v24H0z" fill="none"/>
        </svg>


        <svg version="1.1" id="antecedent" xmlns="http://www.w3.org/2000/svg" xmlns:xlink="http://www.w3.org/1999/xlink"
             width="45.762px" height="45.761px" viewBox="0 0 45.762 45.761" enable-background="new 0 0 45.762 45.761" xml:space="preserve">

        <g>
            <g>
                <path d="M20.614,7.191l3.439-1.91c0.819,0.455,1.851,0.488,2.731-0.001c1.359-0.754,1.852-2.469,1.097-3.83
                    c-0.757-1.36-2.47-1.851-3.829-1.096c-0.882,0.489-1.397,1.381-1.446,2.318l-4.042,2.244c-1.233-0.903-2.754-1.437-4.4-1.437
                    c-1.646,0-3.167,0.534-4.398,1.437L5.723,2.673C5.675,1.735,5.159,0.844,4.277,0.355C2.917-0.399,1.203,0.09,0.448,1.452
                    c-0.755,1.36-0.265,3.075,1.096,3.83c0.882,0.489,1.912,0.456,2.732,0.001l3.44,1.91c-0.6,1.029-0.958,2.213-1.003,3.479
                    c2.273-1.136,4.797-1.77,7.45-1.77c2.654,0,5.177,0.633,7.452,1.77C21.571,9.406,21.211,8.22,20.614,7.191z" />

                <path d="M14.259,7.59v33.794c7.654-0.84,13.631-8.084,13.631-16.896S21.913,8.433,14.259,7.59z M19.049,12.286
                    c1.514,0,2.741,1.228,2.741,2.741c0,1.514-1.229,2.742-2.741,2.742c-1.516,0-2.742-1.228-2.742-2.742
                    C16.305,13.511,17.533,12.286,19.049,12.286z M19.049,36.693c-1.516,0-2.742-1.229-2.742-2.74c0-1.516,1.228-2.742,2.742-2.742
                    c1.514,0,2.741,1.229,2.741,2.742C21.79,35.464,20.561,36.693,19.049,36.693z M23.363,26.699c-1.515,0-2.741-1.23-2.741-2.742
                    c0-1.513,1.228-2.742,2.741-2.742s2.74,1.229,2.74,2.742C26.103,25.47,24.877,26.699,23.363,26.699z" fill="#DF0101"/>
                <path d="M0.345,24.488c0,8.812,5.979,16.057,13.632,16.896V7.59C6.323,8.433,0.345,15.675,0.345,24.488z M4.872,26.699
                    c-1.513,0-2.74-1.23-2.74-2.742c0-1.513,1.228-2.742,2.74-2.742c1.516,0,2.743,1.229,2.743,2.742
                    C7.615,25.47,6.387,26.699,4.872,26.699z M9.188,36.693c-1.514,0-2.741-1.229-2.741-2.74c0-1.516,1.229-2.742,2.741-2.742
                    s2.742,1.229,2.742,2.742C11.93,35.464,10.702,36.693,9.188,36.693z M9.188,12.286c1.514,0,2.742,1.228,2.742,2.741
                    c0,1.514-1.229,2.742-2.742,2.742s-2.741-1.228-2.741-2.742C6.447,13.513,7.675,12.286,9.188,12.286z" fill="#DF0101"/>

            </g>
        </g>
        </svg>


        <svg id="voice_chat" height="24" viewBox="0 0 24 24" width="24" xmlns="http://www.w3.org/2000/svg">
            <path d="M0 0h24v24H0z" fill="none"/>
            <path d="M20 2H4c-1.1 0-1.99.9-1.99 2L2 22l4-4h14c1.1 0 2-.9 2-2V4c0-1.1-.9-2-2-2zm-2 12l-4-3.2V14H6V6h8v3.2L18 6v8z"/>
        </svg>


        <svg id="speaker_notes" height="24" viewBox="0 0 24 24" width="24" xmlns="http://www.w3.org/2000/svg">
            <path d="M0 0h24v24H0z" fill="none"/>
            <path d="M20 2H4c-1.1 0-1.99.9-1.99 2L2 22l4-4h14c1.1 0 2-.9 2-2V4c0-1.1-.9-2-2-2zM8 14H6v-2h2v2zm0-3H6V9h2v2zm0-3H6V6h2v2zm7 6h-5v-2h5v2zm3-3h-8V9h8v2zm0-3h-8V6h8v2z"/>
        </svg>

        <svg id="question_answer" height="24" viewBox="0 0 24 24" width="24" xmlns="http://www.w3.org/2000/svg">
            <path d="M0 0h24v24H0z" fill="none"/>
            <path d="M21 6h-2v9H6v2c0 .55.45 1 1 1h11l4 4V7c0-.55-.45-1-1-1zm-4 6V3c0-.55-.45-1-1-1H3c-.55 0-1 .45-1 1v14l4-4h10c.55 0 1-.45 1-1z"/>
        </svg>

        <svg id="announcement" height="24" viewBox="0 0 24 24" width="24" xmlns="http://www.w3.org/2000/svg">
            <path d="M20 2H4c-1.1 0-1.99.9-1.99 2L2 22l4-4h14c1.1 0 2-.9 2-2V4c0-1.1-.9-2-2-2zm-7 9h-2V5h2v6zm0 4h-2v-2h2v2z"/>
            <path d="M0 0h24v24H0z" fill="none"/>
        </svg>

        <svg id="check_box" height="24" viewBox="0 0 24 24" width="24" xmlns="http://www.w3.org/2000/svg">
            <path d="M0 0h24v24H0z" fill="none"/>
            <path d="M19 3H5c-1.11 0-2 .9-2 2v14c0 1.1.89 2 2 2h14c1.11 0 2-.9 2-2V5c0-1.1-.89-2-2-2zm-9 14l-5-5 1.41-1.41L10 14.17l7.59-7.59L19 8l-9 9z"/>
        </svg>


        <svg id="check_box_outline" height="24" viewBox="0 0 24 24" width="24" xmlns="http://www.w3.org/2000/svg">
            <path d="M19 5v14H5V5h14m0-2H5c-1.1 0-2 .9-2 2v14c0 1.1.9 2 2 2h14c1.1 0 2-.9 2-2V5c0-1.1-.9-2-2-2z"/>
            <path d="M0 0h24v24H0z" fill="none"/>
        </svg>

        <svg id="code" height="24" viewBox="0 0 24 24" width="24" xmlns="http://www.w3.org/2000/svg">
            <path d="M0 0h24v24H0V0z" fill="none"/>
            <path d="M9.4 16.6L4.8 12l4.6-4.6L8 6l-6 6 6 6 1.4-1.4zm5.2 0l4.6-4.6-4.6-4.6L16 6l6 6-6 6-1.4-1.4z"/>
        </svg>

        <svg id="page_first" height="24" viewBox="0 0 24 24" width="24" xmlns="http://www.w3.org/2000/svg">
            <path d="M18.41 16.59L13.82 12l4.59-4.59L17 6l-6 6 6 6zM6 6h2v12H6z"/>
            <path d="M24 24H0V0h24v24z" fill="none"/>
        </svg>

        <svg id="page_last" height="24" viewBox="0 0 24 24" width="24" xmlns="http://www.w3.org/2000/svg">
            <path d="M5.59 7.41L10.18 12l-4.59 4.59L7 18l6-6-6-6zM16 6h2v12h-2z"/>
            <path d="M0 0h24v24H0V0z" fill="none"/>
        </svg>

        <svg id="storage" height="24" viewBox="0 0 24 24" width="24" xmlns="http://www.w3.org/2000/svg">
            <path d="M0 0h24v24H0z" fill="none"/>
            <path d="M2 20h20v-4H2v4zm2-3h2v2H4v-2zM2 4v4h20V4H2zm4 3H4V5h2v2zm-4 7h20v-4H2v4zm2-3h2v2H4v-2z"/>
        </svg>

        <svg id="matching" height="24" viewBox="0 0 24 24" width="24" xmlns="http://www.w3.org/2000/svg" xmlns:xlink="http://www.w3.org/1999/xlink">
            <defs>
                <path d="M0 0h24v24H0V0z" id="a"/>
            </defs>
            <clipPath id="b">
                <use overflow="visible" xlink:href="#a"/>
            </clipPath>
            <path clip-path="url(#b)" d="M9.01 14H2v2h7.01v3L13 15l-3.99-4v3zm5.98-1v-3H22V8h-7.01V5L11 9l3.99 4z"/>
        </svg>

        <svg id="exchange" height="24" viewBox="0 0 24 24" width="24" xmlns="http://www.w3.org/2000/svg">
            <path d="M6.99 11L3 15l3.99 4v-3H14v-2H6.99v-3zM21 9l-3.99-4v3H10v2h7.01v3L21 9z"/>
            <path d="M0 0h24v24H0z" fill="none"/>
        </svg>

        <svg id="build" height="24" viewBox="0 0 24 24" width="24" xmlns="http://www.w3.org/2000/svg">
            <path clip-rule="evenodd" d="M0 0h24v24H0z" fill="none"/>
            <path d="M22.7 19l-9.1-9.1c.9-2.3.4-5-1.5-6.9-2-2-5-2.4-7.4-1.3L9 6 6 9 1.6 4.7C.4 7.1.9 10.1 2.9 12.1c1.9 1.9 4.6 2.4 6.9 1.5l9.1 9.1c.4.4 1 .4 1.4 0l2.3-2.3c.5-.4.5-1.1.1-1.4z"/>
        </svg>

        <svg id="http" height="24" viewBox="0 0 24 24" width="24" xmlns="http://www.w3.org/2000/svg">
            <path d="M4.5 11h-2V9H1v6h1.5v-2.5h2V15H6V9H4.5v2zm2.5-.5h1.5V15H10v-4.5h1.5V9H7v1.5zm5.5 0H14V15h1.5v-4.5H17V9h-4.5v1.5zm9-1.5H18v6h1.5v-2h2c.8 0 1.5-.7 1.5-1.5v-1c0-.8-.7-1.5-1.5-1.5zm0 2.5h-2v-1h2v1z"/>
            <path d="M24 24H0V0h24v24z" fill="none"/>
        </svg>

        <svg id="print" height="24" viewBox="0 0 24 24" width="24" xmlns="http://www.w3.org/2000/svg">
            <path d="M19 8H5c-1.66 0-3 1.34-3 3v6h4v4h12v-4h4v-6c0-1.66-1.34-3-3-3zm-3 11H8v-5h8v5zm3-7c-.55 0-1-.45-1-1s.45-1 1-1 1 .45 1 1-.45 1-1 1zm-1-9H6v4h12V3z"/>
            <path d="M0 0h24v24H0z" fill="none"/>
        </svg>


        <svg id="verified_user" height="24" viewBox="0 0 24 24" width="24" xmlns="http://www.w3.org/2000/svg">
            <path d="M0 0h24v24H0z" fill="none"/>
            <path d="M12 1L3 5v6c0 5.55 3.84 10.74 9 12 5.16-1.26 9-6.45 9-12V5l-9-4zm-2 16l-4-4 1.41-1.41L10 14.17l6.59-6.59L18 9l-8 8z"/>
        </svg>


        <svg id="home" height="24" viewBox="0 0 24 24" width="24" xmlns="http://www.w3.org/2000/svg">
            <path d="M10 20v-6h4v6h5v-8h3L12 3 2 12h3v8z"/>
            <path d="M0 0h24v24H0z" fill="none"/>
        </svg>

        <svg id="exchange_vertical" height="24" viewBox="0 0 24 24" width="24" xmlns="http://www.w3.org/2000/svg">
            <path d="M9 3L5 6.99h3V14h2V6.99h3L9 3zm7 14.01V10h-2v7.01h-3L15 21l4-3.99h-3z"/>
            <path d="M0 0h24v24H0z" fill="none"/>
        </svg>

        <svg id="flag" height="24" viewBox="0 0 24 24" width="24" xmlns="http://www.w3.org/2000/svg">
            <path d="M0 0h24v24H0z" fill="none"/>
            <path d="M14.4 6L14 4H5v17h2v-7h5.6l.4 2h7V6z"/>
        </svg>

        <svg id="wallpaper" height="24" viewBox="0 0 24 24" width="24" xmlns="http://www.w3.org/2000/svg">
            <path d="M4 4h7V2H4c-1.1 0-2 .9-2 2v7h2V4zm6 9l-4 5h12l-3-4-2.03 2.71L10 13zm7-4.5c0-.83-.67-1.5-1.5-1.5S14 7.67 14 8.5s.67 1.5 1.5 1.5S17 9.33 17 8.5zM20 2h-7v2h7v7h2V4c0-1.1-.9-2-2-2zm0 18h-7v2h7c1.1 0 2-.9 2-2v-7h-2v7zM4 13H2v7c0 1.1.9 2 2 2h7v-2H4v-7z"/>
            <path d="M0 0h24v24H0z" fill="none"/>
        </svg>

        <svg id="security" height="24" viewBox="0 0 24 24" width="24" xmlns="http://www.w3.org/2000/svg">
            <path d="M12 1L3 5v6c0 5.55 3.84 10.74 9 12 5.16-1.26 9-6.45 9-12V5l-9-4zm0 10.99h7c-.53 4.12-3.28 7.79-7 8.94V12H5V6.3l7-3.11v8.8z"/>
            <path d="M0 0h24v24H0z" fill="none"/>
        </svg>


        <svg id="widget" height="24" viewBox="0 0 24 24" width="24" xmlns="http://www.w3.org/2000/svg">
            <path d="M13 13v8h8v-8h-8zM3 21h8v-8H3v8zM3 3v8h8V3H3zm13.66-1.31L11 7.34 16.66 13l5.66-5.66-5.66-5.65z"/>
            <path d="M0 0h24v24H0z" fill="none"/>
        </svg>

        <svg id="supervisor_account" height="24" viewBox="0 0 24 24" width="24" xmlns="http://www.w3.org/2000/svg">
            <path d="M0 0h24v24H0z" fill="none"/>
            <path d="M16.5 12c1.38 0 2.49-1.12 2.49-2.5S17.88 7 16.5 7C15.12 7 14 8.12 14 9.5s1.12 2.5 2.5 2.5zM9 11c1.66 0 2.99-1.34 2.99-3S10.66 5 9 5C7.34 5 6 6.34 6 8s1.34 3 3 3zm7.5 3c-1.83 0-5.5.92-5.5 2.75V19h11v-2.25c0-1.83-3.67-2.75-5.5-2.75zM9 13c-2.33 0-7 1.17-7 3.5V19h7v-2.25c0-.85.33-2.34 2.37-3.47C10.5 13.1 9.66 13 9 13z"/>
        </svg>

        <svg id="lightbulb" height="24" viewBox="0 0 24 24" width="24" xmlns="http://www.w3.org/2000/svg" xmlns:xlink="http://www.w3.org/1999/xlink">
            <defs>
                <path d="M0 0h24v24H0V0z" id="a"/>
            </defs>
            <clipPath id="b">
                <use overflow="visible" xlink:href="#a"/>
            </clipPath>
            <path clip-path="url(#b)" d="M9 21c0 .55.45 1 1 1h4c.55 0 1-.45 1-1v-1H9v1zm3-19C8.14 2 5 5.14 5 9c0 2.38 1.19 4.47 3 5.74V17c0 .55.45 1 1 1h6c.55 0 1-.45 1-1v-2.26c1.81-1.27 3-3.36 3-5.74 0-3.86-3.14-7-7-7zm2.85 11.1l-.85.6V16h-4v-2.3l-.85-.6C7.8 12.16 7 10.63 7 9c0-2.76 2.24-5 5-5s5 2.24 5 5c0 1.63-.8 3.16-2.15 4.1z"/>
        </svg>

        <svg id="local_hospital" height="24" viewBox="0 0 24 24" width="24" xmlns="http://www.w3.org/2000/svg">
            <path d="M0 0h24v24H0z" fill="none"/>
            <path d="M19 3H5c-1.1 0-1.99.9-1.99 2L3 19c0 1.1.9 2 2 2h14c1.1 0 2-.9 2-2V5c0-1.1-.9-2-2-2zm-1 11h-4v4h-4v-4H6v-4h4V6h4v4h4v4z"/>
        </svg>

        <svg id="point_of_view" height="24" viewBox="0 0 24 24" width="24" xmlns="http://www.w3.org/2000/svg">
            <path d="M0 0h24v24H0z" fill="none"/>
            <path d="M12.56 14.33c-.34.27-.56.7-.56 1.17V21h7c1.1 0 2-.9 2-2v-5.98c-.94-.33-1.95-.52-3-.52-2.03 0-3.93.7-5.44 1.83z"/>
            <circle cx="18" cy="6" r="5"/>
            <path d="M11.5 6c0-1.08.27-2.1.74-3H5c-1.1 0-2 .9-2 2v14c0 .55.23 1.05.59 1.41l9.82-9.82C12.23 9.42 11.5 7.8 11.5 6z"/>
        </svg>

        <svg id="more_vert" height="24" viewBox="0 0 24 24" width="24" xmlns="http://www.w3.org/2000/svg">
            <path d="M0 0h24v24H0z" fill="none"/>
            <path d="M12 8c1.1 0 2-.9 2-2s-.9-2-2-2-2 .9-2 2 .9 2 2 2zm0 2c-1.1 0-2 .9-2 2s.9 2 2 2 2-.9 2-2-.9-2-2-2zm0 6c-1.1 0-2 .9-2 2s.9 2 2 2 2-.9 2-2-.9-2-2-2z"/>
        </svg>

        <svg id="more_horiz" height="24" viewBox="0 0 24 24" width="24" xmlns="http://www.w3.org/2000/svg">
            <path d="M0 0h24v24H0z" fill="none"/>
            <path d="M6 10c-1.1 0-2 .9-2 2s.9 2 2 2 2-.9 2-2-.9-2-2-2zm12 0c-1.1 0-2 .9-2 2s.9 2 2 2 2-.9 2-2-.9-2-2-2zm-6 0c-1.1 0-2 .9-2 2s.9 2 2 2 2-.9 2-2-.9-2-2-2z"/>
        </svg>

        <svg id="priority_high" height="24" viewBox="0 0 24 24" width="24" xmlns="http://www.w3.org/2000/svg">
            <circle cx="12" cy="19" r="2"/>
            <path d="M10 3h4v12h-4z"/>
            <path d="M0 0h24v24H0z" fill="none"/>
        </svg>

        <svg id="vpn_lock" height="24" viewBox="0 0 24 24" width="24" xmlns="http://www.w3.org/2000/svg">
            <path d="M22 4v-.5C22 2.12 20.88 1 19.5 1S17 2.12 17 3.5V4c-.55 0-1 .45-1 1v4c0 .55.45 1 1 1h5c.55 0 1-.45 1-1V5c0-.55-.45-1-1-1zm-.8 0h-3.4v-.5c0-.94.76-1.7 1.7-1.7s1.7.76 1.7 1.7V4zm-2.28 8c.04.33.08.66.08 1 0 2.08-.8 3.97-2.1 5.39-.26-.81-1-1.39-1.9-1.39h-1v-3c0-.55-.45-1-1-1H7v-2h2c.55 0 1-.45 1-1V8h2c1.1 0 2-.9 2-2V3.46c-.95-.3-1.95-.46-3-.46C5.48 3 1 7.48 1 13s4.48 10 10 10 10-4.48 10-10c0-.34-.02-.67-.05-1h-2.03zM10 20.93c-3.95-.49-7-3.85-7-7.93 0-.62.08-1.21.21-1.79L8 16v1c0 1.1.9 2 2 2v1.93z"/>
            <path d="M0 0h24v24H0z" fill="none"/>
        </svg>

        <svg id="sync_problem" height="24" viewBox="0 0 24 24" width="24" xmlns="http://www.w3.org/2000/svg">
            <path d="M0 0h24v24H0z" fill="none"/>
            <path d="M3 12c0 2.21.91 4.2 2.36 5.64L3 20h6v-6l-2.24 2.24C5.68 15.15 5 13.66 5 12c0-2.61 1.67-4.83 4-5.65V4.26C5.55 5.15 3 8.27 3 12zm8 5h2v-2h-2v2zM21 4h-6v6l2.24-2.24C18.32 8.85 19 10.34 19 12c0 2.61-1.67 4.83-4 5.65v2.09c3.45-.89 6-4.01 6-7.74 0-2.21-.91-4.2-2.36-5.64L21 4zm-10 9h2V7h-2v6z"/>
        </svg>

        <svg id="group_add" height="24" viewBox="0 0 24 24" width="24" xmlns="http://www.w3.org/2000/svg">
            <path d="M0 0h24v24H0z" fill="none"/>
            <path d="M8 10H5V7H3v3H0v2h3v3h2v-3h3v-2zm10 1c1.66 0 2.99-1.34 2.99-3S19.66 5 18 5c-.32 0-.63.05-.91.14.57.81.9 1.79.9 2.86s-.34 2.04-.9 2.86c.28.09.59.14.91.14zm-5 0c1.66 0 2.99-1.34 2.99-3S14.66 5 13 5c-1.66 0-3 1.34-3 3s1.34 3 3 3zm6.62 2.16c.83.73 1.38 1.66 1.38 2.84v2h3v-2c0-1.54-2.37-2.49-4.38-2.84zM13 13c-2 0-6 1-6 3v2h12v-2c0-2-4-3-6-3z"/>
        </svg>

        <svg id="person_add" height="24" viewBox="0 0 24 24" width="24" xmlns="http://www.w3.org/2000/svg">
            <path d="M0 0h24v24H0z" fill="none"/>
            <path d="M15 12c2.21 0 4-1.79 4-4s-1.79-4-4-4-4 1.79-4 4 1.79 4 4 4zm-9-2V7H4v3H1v2h3v3h2v-3h3v-2H6zm9 4c-2.67 0-8 1.34-8 4v2h16v-2c0-2.66-5.33-4-8-4z"/>
        </svg>

        <svg id="checkbox_indeterminate" height="24" viewBox="0 0 24 24" width="24" xmlns="http://www.w3.org/2000/svg" xmlns:xlink="http://www.w3.org/1999/xlink">
            <defs>
                <path d="M0 0h24v24H0z" id="a"/>
            </defs>
            <clipPath id="b">
                <use overflow="visible" xlink:href="#a"/>
            </clipPath>
            <path clip-path="url(#b)" d="M19 3H5c-1.1 0-2 .9-2 2v14c0 1.1.9 2 2 2h14c1.1 0 2-.9 2-2V5c0-1.1-.9-2-2-2zm-2 10H7v-2h10v2z"/>
        </svg>

        <svg id="radio_checked" height="24" viewBox="0 0 24 24" width="24" xmlns="http://www.w3.org/2000/svg">
            <path d="M12 7c-2.76 0-5 2.24-5 5s2.24 5 5 5 5-2.24 5-5-2.24-5-5-5zm0-5C6.48 2 2 6.48 2 12s4.48 10 10 10 10-4.48 10-10S17.52 2 12 2zm0 18c-4.42 0-8-3.58-8-8s3.58-8 8-8 8 3.58 8 8-3.58 8-8 8z"/>
            <path d="M0 0h24v24H0z" fill="none"/>
        </svg>

        <svg id="radio_unchecked" height="24" viewBox="0 0 24 24" width="24" xmlns="http://www.w3.org/2000/svg">
            <path d="M12 2C6.48 2 2 6.48 2 12s4.48 10 10 10 10-4.48 10-10S17.52 2 12 2zm0 18c-4.42 0-8-3.58-8-8s3.58-8 8-8 8 3.58 8 8-3.58 8-8 8z"/>
            <path d="M0 0h24v24H0z" fill="none"/>
        </svg>

        <svg id="language" height="24" viewBox="0 0 24 24" width="24" xmlns="http://www.w3.org/2000/svg">
            <path d="M0 0h24v24H0z" fill="none"/>
            <path d="M11.99 2C6.47 2 2 6.48 2 12s4.47 10 9.99 10C17.52 22 22 17.52 22 12S17.52 2 11.99 2zm6.93 6h-2.95c-.32-1.25-.78-2.45-1.38-3.56 1.84.63 3.37 1.91 4.33 3.56zM12 4.04c.83 1.2 1.48 2.53 1.91 3.96h-3.82c.43-1.43 1.08-2.76 1.91-3.96zM4.26 14C4.1 13.36 4 12.69 4 12s.1-1.36.26-2h3.38c-.08.66-.14 1.32-.14 2 0 .68.06 1.34.14 2H4.26zm.82 2h2.95c.32 1.25.78 2.45 1.38 3.56-1.84-.63-3.37-1.9-4.33-3.56zm2.95-8H5.08c.96-1.66 2.49-2.93 4.33-3.56C8.81 5.55 8.35 6.75 8.03 8zM12 19.96c-.83-1.2-1.48-2.53-1.91-3.96h3.82c-.43 1.43-1.08 2.76-1.91 3.96zM14.34 14H9.66c-.09-.66-.16-1.32-.16-2 0-.68.07-1.35.16-2h4.68c.09.65.16 1.32.16 2 0 .68-.07 1.34-.16 2zm.25 5.56c.6-1.11 1.06-2.31 1.38-3.56h2.95c-.96 1.65-2.49 2.93-4.33 3.56zM16.36 14c.08-.66.14-1.32.14-2 0-.68-.06-1.34-.14-2h3.38c.16.64.26 1.31.26 2s-.1 1.36-.26 2h-3.38z"/>
        </svg>

        <svg id="select_all" height="24" viewBox="0 0 24 24" width="24" xmlns="http://www.w3.org/2000/svg">
            <path d="M0 0h24v24H0z" fill="none"/>
            <path d="M3 5h2V3c-1.1 0-2 .9-2 2zm0 8h2v-2H3v2zm4 8h2v-2H7v2zM3 9h2V7H3v2zm10-6h-2v2h2V3zm6 0v2h2c0-1.1-.9-2-2-2zM5 21v-2H3c0 1.1.9 2 2 2zm-2-4h2v-2H3v2zM9 3H7v2h2V3zm2 18h2v-2h-2v2zm8-8h2v-2h-2v2zm0 8c1.1 0 2-.9 2-2h-2v2zm0-12h2V7h-2v2zm0 8h2v-2h-2v2zm-4 4h2v-2h-2v2zm0-16h2V3h-2v2zM7 17h10V7H7v10zm2-8h6v6H9V9z"/>
        </svg>

        <svg id="report" height="24" viewBox="0 0 24 24" width="24" xmlns="http://www.w3.org/2000/svg">
            <path d="M15.73 3H8.27L3 8.27v7.46L8.27 21h7.46L21 15.73V8.27L15.73 3zM12 17.3c-.72 0-1.3-.58-1.3-1.3 0-.72.58-1.3 1.3-1.3.72 0 1.3.58 1.3 1.3 0 .72-.58 1.3-1.3 1.3zm1-4.3h-2V7h2v6z"/>
            <path d="M0 0h24v24H0z" fill="none"/>
        </svg>


        <svg id="email" height="24" viewBox="0 0 24 24" width="24" xmlns="http://www.w3.org/2000/svg">
            <path d="M20 4H4c-1.1 0-1.99.9-1.99 2L2 18c0 1.1.9 2 2 2h16c1.1 0 2-.9 2-2V6c0-1.1-.9-2-2-2zm0 4l-8 5-8-5V6l8 5 8-5v2z"/>
            <path d="M0 0h24v24H0z" fill="none"/>
        </svg>

        <svg id="view_list" height="24" viewBox="0 0 24 24" width="24" xmlns="http://www.w3.org/2000/svg">
            <path d="M4 14h4v-4H4v4zm0 5h4v-4H4v4zM4 9h4V5H4v4zm5 5h12v-4H9v4zm0 5h12v-4H9v4zM9 5v4h12V5H9z"/>
            <path d="M0 0h24v24H0z" fill="none"/>
        </svg>


        <svg id="view_module" height="24" viewBox="0 0 24 24" width="24" xmlns="http://www.w3.org/2000/svg">
            <path d="M4 11h5V5H4v6zm0 7h5v-6H4v6zm6 0h5v-6h-5v6zm6 0h5v-6h-5v6zm-6-7h5V5h-5v6zm6-6v6h5V5h-5z"/>
            <path d="M0 0h24v24H0z" fill="none"/>
        </svg>


        <svg id="check_circle_black" height="24" viewBox="0 0 24 24" width="24" xmlns="http://www.w3.org/2000/svg">
            <path d="M0 0h24v24H0z" fill="none"/>
            <path d="M12 2C6.48 2 2 6.48 2 12s4.48 10 10 10 10-4.48 10-10S17.52 2 12 2zm-2 15l-5-5 1.41-1.41L10 14.17l7.59-7.59L19 8l-9 9z"/>
        </svg>

        <svg id="face" height="24" viewBox="0 0 24 24" width="24" xmlns="http://www.w3.org/2000/svg">
            <path d="M9 11.75c-.69 0-1.25.56-1.25 1.25s.56 1.25 1.25 1.25 1.25-.56 1.25-1.25-.56-1.25-1.25-1.25zm6 0c-.69 0-1.25.56-1.25 1.25s.56 1.25 1.25 1.25 1.25-.56 1.25-1.25-.56-1.25-1.25-1.25zM12 2C6.48 2 2 6.48 2 12s4.48 10 10 10 10-4.48 10-10S17.52 2 12 2zm0 18c-4.41 0-8-3.59-8-8 0-.29.02-.58.05-.86 2.36-1.05 4.23-2.98 5.21-5.37C11.07 8.33 14.05 10 17.42 10c.78 0 1.53-.09 2.25-.26.21.71.33 1.47.33 2.26 0 4.41-3.59 8-8 8z"/>
            <path d="M0 0h24v24H0z" fill="none"/>
        </svg>

        <svg id="loyalty" height="24" viewBox="0 0 24 24" width="24" xmlns="http://www.w3.org/2000/svg">
            <path d="M0 0h24v24H0z" fill="none"/>
            <path d="M21.41 11.58l-9-9C12.05 2.22 11.55 2 11 2H4c-1.1 0-2 .9-2 2v7c0 .55.22 1.05.59 1.42l9 9c.36.36.86.58 1.41.58.55 0 1.05-.22 1.41-.59l7-7c.37-.36.59-.86.59-1.41 0-.55-.23-1.06-.59-1.42zM5.5 7C4.67 7 4 6.33 4 5.5S4.67 4 5.5 4 7 4.67 7 5.5 6.33 7 5.5 7zm11.77 8.27L13 19.54l-4.27-4.27C8.28 14.81 8 14.19 8 13.5c0-1.38 1.12-2.5 2.5-2.5.69 0 1.32.28 1.77.74l.73.72.73-.73c.45-.45 1.08-.73 1.77-.73 1.38 0 2.5 1.12 2.5 2.5 0 .69-.28 1.32-.73 1.77z"/>
        </svg>

        <svg id="stars" height="24" viewBox="0 0 24 24" width="24" xmlns="http://www.w3.org/2000/svg">
            <path d="M0 0h24v24H0z" fill="none"/>
            <path d="M11.99 2C6.47 2 2 6.48 2 12s4.47 10 9.99 10C17.52 22 22 17.52 22 12S17.52 2 11.99 2zm4.24 16L12 15.45 7.77 18l1.12-4.81-3.73-3.23 4.92-.42L12 5l1.92 4.53 4.92.42-3.73 3.23L16.23 18z"/>
        </svg>

        <svg id="thumb_up" height="24" viewBox="0 0 24 24" width="24" xmlns="http://www.w3.org/2000/svg">
            <path d="M0 0h24v24H0z" fill="none"/>
            <path d="M1 21h4V9H1v12zm22-11c0-1.1-.9-2-2-2h-6.31l.95-4.57.03-.32c0-.41-.17-.79-.44-1.06L14.17 1 7.59 7.59C7.22 7.95 7 8.45 7 9v10c0 1.1.9 2 2 2h9c.83 0 1.54-.5 1.84-1.22l3.02-7.05c.09-.23.14-.47.14-.73v-1.91l-.01-.01L23 10z"/>
        </svg>

        <svg id="thumb_down" height="24" viewBox="0 0 24 24" width="24" xmlns="http://www.w3.org/2000/svg">
            <path d="M0 0h24v24H0z" fill="none"/>
            <path d="M15 3H6c-.83 0-1.54.5-1.84 1.22l-3.02 7.05c-.09.23-.14.47-.14.73v1.91l.01.01L1 14c0 1.1.9 2 2 2h6.31l-.95 4.57-.03.32c0 .41.17.79.44 1.06L9.83 23l6.59-6.59c.36-.36.58-.86.58-1.41V5c0-1.1-.9-2-2-2zm4 0v12h4V3h-4z"/>
        </svg>

        <svg id="new_release" height="24" viewBox="0 0 24 24" width="24" xmlns="http://www.w3.org/2000/svg">
            <path d="M0 0h24v24H0z" fill="none"/>
            <path d="M23 12l-2.44-2.78.34-3.68-3.61-.82-1.89-3.18L12 3 8.6 1.54 6.71 4.72l-3.61.81.34 3.68L1 12l2.44 2.78-.34 3.69 3.61.82 1.89 3.18L12 21l3.4 1.46 1.89-3.18 3.61-.82-.34-3.68L23 12zm-10 5h-2v-2h2v2zm0-4h-2V7h2v6z"/>
        </svg>

        <svg id="block" height="24" viewBox="0 0 24 24" width="24" xmlns="http://www.w3.org/2000/svg">
            <path d="M0 0h24v24H0z" fill="none"/>
            <path d="M12 2C6.48 2 2 6.48 2 12s4.48 10 10 10 10-4.48 10-10S17.52 2 12 2zm0 18c-4.42 0-8-3.58-8-8 0-1.85.63-3.55 1.69-4.9L16.9 18.31C15.55 19.37 13.85 20 12 20zm6.31-3.1L7.1 5.69C8.45 4.63 10.15 4 12 4c4.42 0 8 3.58 8 8 0 1.85-.63 3.55-1.69 4.9z"/>
        </svg>

        <svg id="playlist_add" height="24" viewBox="0 0 24 24" width="24" xmlns="http://www.w3.org/2000/svg">
            <path d="M0 0h24v24H0z" fill="none"/>
            <path d="M14 10H2v2h12v-2zm0-4H2v2h12V6zm4 8v-4h-2v4h-4v2h4v4h2v-4h4v-2h-4zM2 16h8v-2H2v2z"/>
        </svg>


        <svg id="stop" height="24" viewBox="0 0 24 24" width="24" xmlns="http://www.w3.org/2000/svg">
            <path d="M0 0h24v24H0z" fill="none"/>
            <path d="M6 6h12v12H6z"/>
        </svg>

        <svg id="business" height="24" viewBox="0 0 24 24" width="24" xmlns="http://www.w3.org/2000/svg">
            <path d="M0 0h24v24H0z" fill="none"/>
            <path d="M12 7V3H2v18h20V7H12zM6 19H4v-2h2v2zm0-4H4v-2h2v2zm0-4H4V9h2v2zm0-4H4V5h2v2zm4 12H8v-2h2v2zm0-4H8v-2h2v2zm0-4H8V9h2v2zm0-4H8V5h2v2zm10 12h-8v-2h2v-2h-2v-2h2v-2h-2V9h8v10zm-2-8h-2v2h2v-2zm0 4h-2v2h2v-2z"/>
        </svg>

        <svg id="content_copy" height="24" viewBox="0 0 24 24" width="24" xmlns="http://www.w3.org/2000/svg">
            <path d="M0 0h24v24H0z" fill="none"/>
            <path d="M16 1H4c-1.1 0-2 .9-2 2v14h2V3h12V1zm3 4H8c-1.1 0-2 .9-2 2v14c0 1.1.9 2 2 2h11c1.1 0 2-.9 2-2V7c0-1.1-.9-2-2-2zm0 16H8V7h11v14z"/>
        </svg>

        <svg id="developer_mode" height="24" viewBox="0 0 24 24" width="24" xmlns="http://www.w3.org/2000/svg">
            <path d="M0 0h24v24H0z" fill="none"/>
            <path d="M7 5h10v2h2V3c0-1.1-.9-1.99-2-1.99L7 1c-1.1 0-2 .9-2 2v4h2V5zm8.41 11.59L20 12l-4.59-4.59L14 8.83 17.17 12 14 15.17l1.41 1.42zM10 15.17L6.83 12 10 8.83 8.59 7.41 4 12l4.59 4.59L10 15.17zM17 19H7v-2H5v4c0 1.1.9 2 2 2h10c1.1 0 2-.9 2-2v-4h-2v2z"/>
        </svg>

        <svg id="computer" height="24" viewBox="0 0 24 24" width="24" xmlns="http://www.w3.org/2000/svg">
            <path d="M0 0h24v24H0z" fill="none"/>
            <path d="M20 18c1.1 0 1.99-.9 1.99-2L22 6c0-1.1-.9-2-2-2H4c-1.1 0-2 .9-2 2v10c0 1.1.9 2 2 2H0v2h24v-2h-4zM4 6h16v10H4V6z"/>
        </svg>

        <svg id="devices_other" height="24" viewBox="0 0 24 24" width="24" xmlns="http://www.w3.org/2000/svg">
            <path d="M0 0h24v24H0z" fill="none"/>
            <path d="M3 6h18V4H3c-1.1 0-2 .9-2 2v12c0 1.1.9 2 2 2h4v-2H3V6zm10 6H9v1.78c-.61.55-1 1.33-1 2.22s.39 1.67 1 2.22V20h4v-1.78c.61-.55 1-1.34 1-2.22s-.39-1.67-1-2.22V12zm-2 5.5c-.83 0-1.5-.67-1.5-1.5s.67-1.5 1.5-1.5 1.5.67 1.5 1.5-.67 1.5-1.5 1.5zM22 8h-6c-.5 0-1 .5-1 1v10c0 .5.5 1 1 1h6c.5 0 1-.5 1-1V9c0-.5-.5-1-1-1zm-1 10h-4v-8h4v8z"/>
        </svg>

        <svg id="laptop_mac" height="24" viewBox="0 0 24 24" width="24" xmlns="http://www.w3.org/2000/svg">
            <path d="M0 0h24v24H0z" fill="none"/>
            <path d="M20 18c1.1 0 1.99-.9 1.99-2L22 5c0-1.1-.9-2-2-2H4c-1.1 0-2 .9-2 2v11c0 1.1.9 2 2 2H0c0 1.1.9 2 2 2h20c1.1 0 2-.9 2-2h-4zM4 5h16v11H4V5zm8 14c-.55 0-1-.45-1-1s.45-1 1-1 1 .45 1 1-.45 1-1 1z"/>
        </svg>

        <svg id="desktop_mac" height="24" viewBox="0 0 24 24" width="24" xmlns="http://www.w3.org/2000/svg">
            <path d="M0 0h24v24H0z" fill="none"/>
            <path d="M21 2H3c-1.1 0-2 .9-2 2v12c0 1.1.9 2 2 2h7l-2 3v1h8v-1l-2-3h7c1.1 0 2-.9 2-2V4c0-1.1-.9-2-2-2zm0 12H3V4h18v10z"/>
        </svg>

        <svg id="tablet" height="24" viewBox="0 0 24 24" width="24" xmlns="http://www.w3.org/2000/svg">
            <path d="M0 0h24v24H0z" fill="none"/>
            <path d="M21 4H3c-1.1 0-2 .9-2 2v12c0 1.1.9 2 2 2h18c1.1 0 1.99-.9 1.99-2L23 6c0-1.1-.9-2-2-2zm-2 14H5V6h14v12z"/>
        </svg>

        <svg id="tablet_android" height="24" viewBox="0 0 24 24" width="24" xmlns="http://www.w3.org/2000/svg" xmlns:xlink="http://www.w3.org/1999/xlink">
            <defs>
                <path d="M0 0h24v24H0z" id="a"/>
            </defs>
            <clipPath id="b">
                <use overflow="visible" xlink:href="#a"/>
            </clipPath>
            <path clip-path="url(#b)" d="M18 0H6C4.34 0 3 1.34 3 3v18c0 1.66 1.34 3 3 3h12c1.66 0 3-1.34 3-3V3c0-1.66-1.34-3-3-3zm-4 22h-4v-1h4v1zm5.25-3H4.75V3h14.5v16z"/>
        </svg>

        <svg id="tablet_mac" height="24" viewBox="0 0 24 24" width="24" xmlns="http://www.w3.org/2000/svg">
            <path d="M18.5 0h-14C3.12 0 2 1.12 2 2.5v19C2 22.88 3.12 24 4.5 24h14c1.38 0 2.5-1.12 2.5-2.5v-19C21 1.12 19.88 0 18.5 0zm-7 23c-.83 0-1.5-.67-1.5-1.5s.67-1.5 1.5-1.5 1.5.67 1.5 1.5-.67 1.5-1.5 1.5zm7.5-4H4V3h15v16z"/>
        </svg>

        <svg id="memory" height="24" viewBox="0 0 24 24" width="24" xmlns="http://www.w3.org/2000/svg">
            <path d="M0 0h24v24H0z" fill="none"/>
            <path d="M15 9H9v6h6V9zm-2 4h-2v-2h2v2zm8-2V9h-2V7c0-1.1-.9-2-2-2h-2V3h-2v2h-2V3H9v2H7c-1.1 0-2 .9-2 2v2H3v2h2v2H3v2h2v2c0 1.1.9 2 2 2h2v2h2v-2h2v2h2v-2h2c1.1 0 2-.9 2-2v-2h2v-2h-2v-2h2zm-4 6H7V7h10v10z"/>
        </svg>

        <svg id="tv" height="24" viewBox="0 0 24 24" width="24" xmlns="http://www.w3.org/2000/svg">
            <path d="M0 0h24v24H0z" fill="none"/>
            <path d="M21 3H3c-1.1 0-2 .9-2 2v12c0 1.1.9 2 2 2h5v2h8v-2h5c1.1 0 1.99-.9 1.99-2L23 5c0-1.1-.9-2-2-2zm0 14H3V5h18v12z"/>
        </svg>

        <svg id="cast" height="24" viewBox="0 0 24 24" width="24" xmlns="http://www.w3.org/2000/svg">
            <path d="M0 0h24v24H0z" fill="none" opacity=".1"/>
            <path d="M0 0h24v24H0z" fill="none"/>
            <path d="M21 3H3c-1.1 0-2 .9-2 2v3h2V5h18v14h-7v2h7c1.1 0 2-.9 2-2V5c0-1.1-.9-2-2-2zM1 18v3h3c0-1.66-1.34-3-3-3zm0-4v2c2.76 0 5 2.24 5 5h2c0-3.87-3.13-7-7-7zm0-4v2c4.97 0 9 4.03 9 9h2c0-6.08-4.93-11-11-11z"/>
        </svg>

        <svg id="cast_connected" height="24" viewBox="0 0 24 24" width="24" xmlns="http://www.w3.org/2000/svg">
            <path d="M0 0h24v24H0z" fill="none" opacity=".1"/>
            <path d="M0 0h24v24H0z" fill="none"/>
            <path d="M1 18v3h3c0-1.66-1.34-3-3-3zm0-4v2c2.76 0 5 2.24 5 5h2c0-3.87-3.13-7-7-7zm18-7H5v1.63c3.96 1.28 7.09 4.41 8.37 8.37H19V7zM1 10v2c4.97 0 9 4.03 9 9h2c0-6.08-4.93-11-11-11zm20-7H3c-1.1 0-2 .9-2 2v3h2V5h18v14h-7v2h7c1.1 0 2-.9 2-2V5c0-1.1-.9-2-2-2z"/>
        </svg>

        <svg id="ondemand_video" height="24" viewBox="0 0 24 24" width="24" xmlns="http://www.w3.org/2000/svg">
            <path d="M0 0h24v24H0V0z" fill="none"/>
            <path d="M21 3H3c-1.11 0-2 .89-2 2v12c0 1.1.89 2 2 2h5v2h8v-2h5c1.1 0 1.99-.9 1.99-2L23 5c0-1.11-.9-2-2-2zm0 14H3V5h18v12zm-5-6l-7 4V7z"/>
        </svg>

        <svg id="ondemand_video" height="24" viewBox="0 0 24 24" width="24" xmlns="http://www.w3.org/2000/svg">
            <path d="M0 0h24v24H0V0z" fill="none"/>
            <path d="M21 3H3c-1.11 0-2 .89-2 2v12c0 1.1.89 2 2 2h5v2h8v-2h5c1.1 0 1.99-.9 1.99-2L23 5c0-1.11-.9-2-2-2zm0 14H3V5h18v12zm-5-6l-7 4V7z"/>
        </svg>

        <svg id="folder_special" height="24" viewBox="0 0 24 24" width="24" xmlns="http://www.w3.org/2000/svg">
            <path d="M0 0h24v24H0V0z" fill="none"/>
            <path d="M20 6h-8l-2-2H4c-1.1 0-2 .9-2 2v12c0 1.1.9 2 2 2h16c1.1 0 2-.9 2-2V8c0-1.1-.9-2-2-2zm-2.06 11L15 15.28 12.06 17l.78-3.33-2.59-2.24 3.41-.29L15 8l1.34 3.14 3.41.29-2.59 2.24.78 3.33z"/>
        </svg>

        <svg id="sentiment_dissatisfied" height="24" viewBox="0 0 24 24" width="24" xmlns="http://www.w3.org/2000/svg">
            <path d="M0 0h24v24H0z" fill="none"/>
            <circle cx="15.5" cy="9.5" r="1.5"/>
            <circle cx="8.5" cy="9.5" r="1.5"/>
            <path d="M11.99 2C6.47 2 2 6.48 2 12s4.47 10 9.99 10C17.52 22 22 17.52 22 12S17.52 2 11.99 2zM12 20c-4.42 0-8-3.58-8-8s3.58-8 8-8 8 3.58 8 8-3.58 8-8 8zm0-6c-2.33 0-4.32 1.45-5.12 3.5h1.67c.69-1.19 1.97-2 3.45-2s2.75.81 3.45 2h1.67c-.8-2.05-2.79-3.5-5.12-3.5z"/>
        </svg>

        <svg id="sentiment_neutral" height="24" viewBox="0 0 24 24" width="24" xmlns="http://www.w3.org/2000/svg">
            <path d="M9 14h6v1.5H9z"/>
            <circle cx="15.5" cy="9.5" r="1.5"/>
            <circle cx="8.5" cy="9.5" r="1.5"/>
            <path d="M11.99 2C6.47 2 2 6.48 2 12s4.47 10 9.99 10C17.52 22 22 17.52 22 12S17.52 2 11.99 2zM12 20c-4.42 0-8-3.58-8-8s3.58-8 8-8 8 3.58 8 8-3.58 8-8 8z"/>
            <path d="M0 0h24v24H0z" fill="none"/>
        </svg>

        <svg id="sentiment_satisfied" height="24" viewBox="0 0 24 24" width="24" xmlns="http://www.w3.org/2000/svg">
            <path d="M0 0h24v24H0z" fill="none"/>
            <circle cx="15.5" cy="9.5" r="1.5"/>
            <circle cx="8.5" cy="9.5" r="1.5"/>
            <path d="M11.99 2C6.47 2 2 6.48 2 12s4.47 10 9.99 10C17.52 22 22 17.52 22 12S17.52 2 11.99 2zM12 20c-4.42 0-8-3.58-8-8s3.58-8 8-8 8 3.58 8 8-3.58 8-8 8zm0-4c-1.48 0-2.75-.81-3.45-2H6.88c.8 2.05 2.79 3.5 5.12 3.5s4.32-1.45 5.12-3.5h-1.67c-.7 1.19-1.97 2-3.45 2z"/>
        </svg>

        <svg id="sentiment_very_dissatisfied" height="24" viewBox="0 0 24 24" width="24" xmlns="http://www.w3.org/2000/svg">
            <path d="M11.99 2C6.47 2 2 6.47 2 12s4.47 10 9.99 10S22 17.53 22 12 17.52 2 11.99 2zM12 20c-4.42 0-8-3.58-8-8s3.58-8 8-8 8 3.58 8 8-3.58 8-8 8zm4.18-12.24l-1.06 1.06-1.06-1.06L13 8.82l1.06 1.06L13 10.94 14.06 12l1.06-1.06L16.18 12l1.06-1.06-1.06-1.06 1.06-1.06zM7.82 12l1.06-1.06L9.94 12 11 10.94 9.94 9.88 11 8.82 9.94 7.76 8.88 8.82 7.82 7.76 6.76 8.82l1.06 1.06-1.06 1.06zM12 14c-2.33 0-4.31 1.46-5.11 3.5h10.22c-.8-2.04-2.78-3.5-5.11-3.5z"/>
            <path d="M0 0h24v24H0z" fill="none"/>
        </svg>

        <svg id="sentiment_very_satisfied" height="24" viewBox="0 0 24 24" width="24" xmlns="http://www.w3.org/2000/svg">
            <path d="M11.99 2C6.47 2 2 6.47 2 12s4.47 10 9.99 10S22 17.53 22 12 17.52 2 11.99 2zM12 20c-4.42 0-8-3.58-8-8s3.58-8 8-8 8 3.58 8 8-3.58 8-8 8zm1-10.06L14.06 11l1.06-1.06L16.18 11l1.06-1.06-2.12-2.12zm-4.12 0L9.94 11 11 9.94 8.88 7.82 6.76 9.94 7.82 11zM12 17.5c2.33 0 4.31-1.46 5.11-3.5H6.89c.8 2.04 2.78 3.5 5.11 3.5z"/>
            <path d="M0 0h24v24H0z" fill="none"/>
        </svg>

        <svg id="whatshot" height="24" viewBox="0 0 24 24" width="24" xmlns="http://www.w3.org/2000/svg">
            <path d="M13.5.67s.74 2.65.74 4.8c0 2.06-1.35 3.73-3.41 3.73-2.07 0-3.63-1.67-3.63-3.73l.03-.36C5.21 7.51 4 10.62 4 14c0 4.42 3.58 8 8 8s8-3.58 8-8C20 8.61 17.41 3.8 13.5.67zM11.71 19c-1.78 0-3.22-1.4-3.22-3.14 0-1.62 1.05-2.76 2.81-3.12 1.77-.36 3.6-1.21 4.62-2.58.39 1.29.59 2.65.59 4.04 0 2.65-2.15 4.8-4.8 4.8z"/>
            <path d="M0 0h24v24H0z" fill="none"/>
        </svg>

        <svg id="start_half" height="24" viewBox="0 0 24 24" width="24" xmlns="http://www.w3.org/2000/svg" xmlns:xlink="http://www.w3.org/1999/xlink">
            <defs>
                <path d="M0 0h24v24H0V0z" id="a"/>
            </defs>
            <clipPath id="b">
                <use overflow="visible" xlink:href="#a"/>
            </clipPath>
            <path clip-path="url(#b)" d="M22 9.24l-7.19-.62L12 2 9.19 8.63 2 9.24l5.46 4.73L5.82 21 12 17.27 18.18 21l-1.63-7.03L22 9.24zM12 15.4V6.1l1.71 4.04 4.38.38-3.32 2.88 1 4.28L12 15.4z"/>
        </svg>

        <svg id="refresh" height="24" viewBox="0 0 24 24" width="24" xmlns="http://www.w3.org/2000/svg">
            <path d="M17.65 6.35C16.2 4.9 14.21 4 12 4c-4.42 0-7.99 3.58-7.99 8s3.57 8 7.99 8c3.73 0 6.84-2.55 7.73-6h-2.08c-.82 2.33-3.04 4-5.65 4-3.31 0-6-2.69-6-6s2.69-6 6-6c1.66 0 3.14.69 4.22 1.78L13 11h7V4l-2.35 2.35z"/>
            <path d="M0 0h24v24H0z" fill="none"/>
        </svg>

        <svg id="public" height="24" viewBox="0 0 24 24" width="24" xmlns="http://www.w3.org/2000/svg">
            <path d="M0 0h24v24H0z" fill="none"/>
            <path d="M12 2C6.48 2 2 6.48 2 12s4.48 10 10 10 10-4.48 10-10S17.52 2 12 2zm-1 17.93c-3.95-.49-7-3.85-7-7.93 0-.62.08-1.21.21-1.79L9 15v1c0 1.1.9 2 2 2v1.93zm6.9-2.54c-.26-.81-1-1.39-1.9-1.39h-1v-3c0-.55-.45-1-1-1H8v-2h2c.55 0 1-.45 1-1V7h2c1.1 0 2-.9 2-2v-.41c2.93 1.19 5 4.06 5 7.41 0 2.08-.8 3.97-2.1 5.39z"/>
        </svg>

        <svg id="cancel" height="24" viewBox="0 0 24 24" width="24" xmlns="http://www.w3.org/2000/svg">
            <path d="M12 2C6.47 2 2 6.47 2 12s4.47 10 10 10 10-4.47 10-10S17.53 2 12 2zm5 13.59L15.59 17 12 13.41 8.41 17 7 15.59 10.59 12 7 8.41 8.41 7 12 10.59 15.59 7 17 8.41 13.41 12 17 15.59z"/>
            <path d="M0 0h24v24H0z" fill="none"/>
        </svg>

        <svg id="fullscreen" height="24" viewBox="0 0 24 24" width="24" xmlns="http://www.w3.org/2000/svg">
            <path d="M0 0h24v24H0z" fill="none"/>
            <path d="M7 14H5v5h5v-2H7v-3zm-2-4h2V7h3V5H5v5zm12 7h-3v2h5v-5h-2v3zM14 5v2h3v3h2V5h-5z"/>
        </svg>

        <svg id="fullscreen_exit" height="24" viewBox="0 0 24 24" width="24" xmlns="http://www.w3.org/2000/svg">
            <path d="M0 0h24v24H0z" fill="none"/>
            <path d="M5 16h3v3h2v-5H5v2zm3-8H5v2h5V5H8v3zm6 11h2v-3h3v-2h-5v5zm2-11V5h-2v5h5V8h-3z"/>
        </svg>

        <svg id="local_florist" height="24" viewBox="0 0 24 24" width="24" xmlns="http://www.w3.org/2000/svg">
            <path d="M0 0h24v24H0z" fill="none"/>
            <path d="M12 22c4.97 0 9-4.03 9-9-4.97 0-9 4.03-9 9zM5.6 10.25c0 1.38 1.12 2.5 2.5 2.5.53 0 1.01-.16 1.42-.44l-.02.19c0 1.38 1.12 2.5 2.5 2.5s2.5-1.12 2.5-2.5l-.02-.19c.4.28.89.44 1.42.44 1.38 0 2.5-1.12 2.5-2.5 0-1-.59-1.85-1.43-2.25.84-.4 1.43-1.25 1.43-2.25 0-1.38-1.12-2.5-2.5-2.5-.53 0-1.01.16-1.42.44l.02-.19C14.5 2.12 13.38 1 12 1S9.5 2.12 9.5 3.5l.02.19c-.4-.28-.89-.44-1.42-.44-1.38 0-2.5 1.12-2.5 2.5 0 1 .59 1.85 1.43 2.25-.84.4-1.43 1.25-1.43 2.25zM12 5.5c1.38 0 2.5 1.12 2.5 2.5s-1.12 2.5-2.5 2.5S9.5 9.38 9.5 8s1.12-2.5 2.5-2.5zM3 13c0 4.97 4.03 9 9 9 0-4.97-4.03-9-9-9z"/>
        </svg>

        <svg id="view_comfy" height="24" viewBox="0 0 24 24" width="24" xmlns="http://www.w3.org/2000/svg">
            <path d="M3 9h4V5H3v4zm0 5h4v-4H3v4zm5 0h4v-4H8v4zm5 0h4v-4h-4v4zM8 9h4V5H8v4zm5-4v4h4V5h-4zm5 9h4v-4h-4v4zM3 19h4v-4H3v4zm5 0h4v-4H8v4zm5 0h4v-4h-4v4zm5 0h4v-4h-4v4zm0-14v4h4V5h-4z"/>
            <path d="M0 0h24v24H0z" fill="none"/>
        </svg>

        <svg id="view_compact" height="24" viewBox="0 0 24 24" width="24" xmlns="http://www.w3.org/2000/svg">
            <path d="M0 0h24v24H0z" fill="none"/>
            <path d="M3 19h6v-7H3v7zm7 0h12v-7H10v7zM3 5v6h19V5H3z"/>
        </svg>

        <svg id="folder_open" height="24" viewBox="0 0 24 24" width="24" xmlns="http://www.w3.org/2000/svg">
            <path d="M0 0h24v24H0z" fill="none"/>
            <path d="M20 6h-8l-2-2H4c-1.1 0-1.99.9-1.99 2L2 18c0 1.1.9 2 2 2h16c1.1 0 2-.9 2-2V8c0-1.1-.9-2-2-2zm0 12H4V8h16v10z"/>
        </svg>

        <svg id="undo" height="24" viewBox="0 0 24 24" width="24" xmlns="http://www.w3.org/2000/svg">
            <path d="M0 0h24v24H0z" fill="none"/>
            <path d="M12.5 8c-2.65 0-5.05.99-6.9 2.6L2 7v9h9l-3.62-3.62c1.39-1.16 3.16-1.88 5.12-1.88 3.54 0 6.55 2.31 7.6 5.5l2.37-.78C21.08 11.03 17.15 8 12.5 8z"/>
        </svg>

        <svg id="call_made" height="24" viewBox="0 0 24 24" width="24" xmlns="http://www.w3.org/2000/svg">
            <path d="M0 0h24v24H0z" fill="none"/>
            <path d="M9 5v2h6.59L4 18.59 5.41 20 17 8.41V15h2V5z"/>
        </svg>

        <svg id="call_merge" height="24" viewBox="0 0 24 24" width="24" xmlns="http://www.w3.org/2000/svg">
            <path d="M0 0h24v24H0z" fill="none"/>
            <path d="M17 20.41L18.41 19 15 15.59 13.59 17 17 20.41zM7.5 8H11v5.59L5.59 19 7 20.41l6-6V8h3.5L12 3.5 7.5 8z"/>
        </svg>

        <svg id="call_missed" height="24" viewBox="0 0 24 24" width="24" xmlns="http://www.w3.org/2000/svg">
            <path d="M0 0h24v24H0z" fill="none"/>
            <path d="M19.59 7L12 14.59 6.41 9H11V7H3v8h2v-4.59l7 7 9-9z"/>
        </svg>

        <svg id="call_missed_outgoing" height="24" viewBox="0 0 24 24" width="24" xmlns="http://www.w3.org/2000/svg" xmlns:xlink="http://www.w3.org/1999/xlink">
            <defs>
                <path d="M24 24H0V0h24v24z" id="a"/>
            </defs>
            <clipPath id="b">
                <use overflow="visible" xlink:href="#a"/>
            </clipPath>
            <path clip-path="url(#b)" d="M3 8.41l9 9 7-7V15h2V7h-8v2h4.59L12 14.59 4.41 7 3 8.41z"/>
        </svg>

        <svg id="call_received" height="24" viewBox="0 0 24 24" width="24" xmlns="http://www.w3.org/2000/svg">
            <path d="M0 0h24v24H0z" fill="none"/>
            <path d="M20 5.41L18.59 4 7 15.59V9H5v10h10v-2H8.41z"/>
        </svg>

        <svg id="call_split" height="24" viewBox="0 0 24 24" width="24" xmlns="http://www.w3.org/2000/svg">
            <path d="M0 0h24v24H0z" fill="none"/>
            <path d="M14 4l2.29 2.29-2.88 2.88 1.42 1.42 2.88-2.88L20 10V4zm-4 0H4v6l2.29-2.29 4.71 4.7V20h2v-8.41l-5.29-5.3z"/>
        </svg>

        <svg id="clear_all" height="24" viewBox="0 0 24 24" width="24" xmlns="http://www.w3.org/2000/svg">
            <path d="M5 13h14v-2H5v2zm-2 4h14v-2H3v2zM7 7v2h14V7H7z"/>
            <path d="M0 0h24v24H0z" fill="none"/>
        </svg>

        <svg id="low_priority" height="24" viewBox="0 0 24 24" width="24" xmlns="http://www.w3.org/2000/svg">
            <path d="M14 5h8v2h-8zm0 5.5h8v2h-8zm0 5.5h8v2h-8zM2 11.5C2 15.08 4.92 18 8.5 18H9v2l3-3-3-3v2h-.5C6.02 16 4 13.98 4 11.5S6.02 7 8.5 7H12V5H8.5C4.92 5 2 7.92 2 11.5z"/>
            <path d="M0 0h24v24H0z" fill="none"/>
        </svg>

        <svg id="backspace" height="24" viewBox="0 0 24 24" width="24" xmlns="http://www.w3.org/2000/svg">
            <path d="M0 0h24v24H0z" fill="none"/>
            <path d="M22 3H7c-.69 0-1.23.35-1.59.88L0 12l5.41 8.11c.36.53.9.89 1.59.89h15c1.1 0 2-.9 2-2V5c0-1.1-.9-2-2-2zm-3 12.59L17.59 17 14 13.41 10.41 17 9 15.59 12.59 12 9 8.41 10.41 7 14 10.59 17.59 7 19 8.41 15.41 12 19 15.59z"/>
        </svg>

        <svg id="keyboard_backspace" height="24" viewBox="0 0 24 24" width="24" xmlns="http://www.w3.org/2000/svg">
            <path d="M0 0h24v24H0z" fill="none"/>
            <path d="M21 11H6.83l3.58-3.59L9 6l-6 6 6 6 1.41-1.41L6.83 13H21z"/>
        </svg>

        <svg id="keyboard_tab" height="24" viewBox="0 0 24 24" width="24" xmlns="http://www.w3.org/2000/svg">
            <path d="M0 0h24v24H0z" fill="none"/>
            <path d="M11.59 7.41L15.17 11H1v2h14.17l-3.59 3.59L13 18l6-6-6-6-1.41 1.41zM20 6v12h2V6h-2z"/>
        </svg>

        <svg id="trending_flat" height="24" viewBox="0 0 24 24" width="24" xmlns="http://www.w3.org/2000/svg">
            <path d="M22 12l-4-4v3H3v2h15v3z"/>
            <path d="M0 0h24v24H0z" fill="none"/>
        </svg>

        <svg id="arrow_downward" height="24" viewBox="0 0 24 24" width="24" xmlns="http://www.w3.org/2000/svg">
            <path d="M0 0h24v24H0V0z" fill="none"/>
            <path d="M20 12l-1.41-1.41L13 16.17V4h-2v12.17l-5.58-5.59L4 12l8 8 8-8z"/>
        </svg>

        <svg id="arrow_forward" height="24" viewBox="0 0 24 24" width="24" xmlns="http://www.w3.org/2000/svg">
            <path d="M0 0h24v24H0z" fill="none"/>
            <path d="M12 4l-1.41 1.41L16.17 11H4v2h12.17l-5.58 5.59L12 20l8-8z"/>
        </svg>

        <svg id="arrow_upward" height="24" viewBox="0 0 24 24" width="24" xmlns="http://www.w3.org/2000/svg">
            <path d="M0 0h24v24H0V0z" fill="none"/>
            <path d="M4 12l1.41 1.41L11 7.83V20h2V7.83l5.58 5.59L20 12l-8-8-8 8z"/>
        </svg>

        <svg id="minus" height="24" viewBox="0 0 24 24" width="24" xmlns="http://www.w3.org/2000/svg">
            <path d="M19 13H5v-2h14v2z"/>
            <path d="M0 0h24v24H0z" fill="none"/>
        </svg>

    </defs>

</svg>
